<svg width="36" height="31" viewBox="0 0 36 31" fill="none" xmlns="http://www.w3.org/2000/svg">
<path d="M21.442 9.76257C19.5134 9.76257 18.0003 11.9129 18.0003 11.9129C18.0003 11.9129 16.573 9.76257 14.5577 9.76257C12.5976 9.76257 10.9969 11.3793 10.8921 13.3368C10.8331 14.4426 11.1896 15.2842 11.6919 16.0465C12.6956 17.5694 18.0067 21.0943 18.0067 21.0943C18.0067 21.0943 23.2979 17.5827 24.3082 16.0465C24.8115 15.2808 25.1671 14.4426 25.1078 13.3368C25.0031 11.3793 23.4023 9.76257 21.442 9.76257Z" fill="#2FDF84"/>
<path d="M35.2969 23.7945H34.6371V3.51981C34.6371 1.94003 33.3519 0.654785 31.7721 0.654785H4.22789C2.64811 0.654785 1.36287 1.94003 1.36287 3.51981V23.7946H0.703125C0.314789 23.7946 0 24.1093 0 24.4977V27.1278C0 28.9019 1.4433 30.3453 3.21743 30.3453H32.7825C34.5566 30.3453 36 28.902 36 27.1279V24.4978C36 24.1093 35.6851 23.7945 35.2969 23.7945ZM4.22789 2.06103H31.7721C32.5765 2.06103 33.2309 2.71543 33.2309 3.51974V5.47703H2.76912V3.51981C2.76912 2.71543 3.42352 2.06103 4.22789 2.06103ZM2.76912 6.88328H33.2309V23.7945H23.0894C22.7012 23.7945 22.3863 24.1093 22.3863 24.4976C22.3863 24.9467 22.021 25.312 21.5719 25.312H14.4281C13.979 25.312 13.6137 24.9466 13.6137 24.4976C13.6137 24.1093 13.2989 23.7945 12.9106 23.7945H2.76912V6.88328ZM34.5938 27.1278C34.5938 28.1265 33.7812 28.939 32.7825 28.939H3.21743C2.21871 28.939 1.40625 28.1264 1.40625 27.1277V25.2007H12.3215C12.6163 26.0816 13.4493 26.7182 14.4281 26.7182H21.5718C22.5506 26.7182 23.3836 26.0816 23.6784 25.2007H34.5938V27.1278Z" fill="#00B871"/>
<path d="M17.605 4.38916H18.3949C18.7831 4.38916 19.098 4.07437 19.098 3.68604C19.098 3.2977 18.7831 2.98291 18.3949 2.98291H17.605C17.2166 2.98291 16.9019 3.2977 16.9019 3.68604C16.9019 4.07437 17.2166 4.38916 17.605 4.38916Z" fill="#00B871"/>
<path d="M28.6252 14.9181H29.3646C29.7529 14.9181 30.0678 14.6033 30.0678 14.215C30.0678 13.8266 29.7529 13.5118 29.3646 13.5118H28.6252C28.237 13.5118 27.9221 13.8266 27.9221 14.215C27.9221 14.6033 28.237 14.9181 28.6252 14.9181Z" fill="#00B871"/>
<path d="M26.8497 10.9352C27.0297 10.9352 27.2096 10.8665 27.3468 10.7293L27.8696 10.2065C28.1442 9.93193 28.1442 9.48671 27.8696 9.21214C27.595 8.93757 27.1498 8.93757 26.8752 9.21222L26.3524 9.73499C26.0778 10.0096 26.0778 10.4548 26.3524 10.7293C26.4898 10.8665 26.6697 10.9352 26.8497 10.9352Z" fill="#00B871"/>
<path d="M26.8753 19.2177C27.0126 19.355 27.1925 19.4236 27.3724 19.4236C27.5524 19.4236 27.7323 19.3549 27.8696 19.2177C28.1442 18.9431 28.1442 18.4979 27.8696 18.2233L27.3468 17.7006C27.0723 17.426 26.6272 17.426 26.3524 17.7006C26.0778 17.9751 26.0778 18.4203 26.3524 18.6949L26.8753 19.2177Z" fill="#00B871"/>
<path d="M7.37483 13.5118H6.6355C6.24716 13.5118 5.93237 13.8266 5.93237 14.215C5.93237 14.6033 6.24716 14.9181 6.6355 14.9181H7.37483C7.76317 14.9181 8.07796 14.6033 8.07796 14.215C8.07796 13.8266 7.76317 13.5118 7.37483 13.5118Z" fill="#00B871"/>
<path d="M8.65351 17.7006L8.13073 18.2233C7.85616 18.4979 7.85616 18.9431 8.13073 19.2178C8.26805 19.3551 8.44798 19.4237 8.62791 19.4237C8.80784 19.4237 8.98784 19.3551 9.12509 19.2178L9.64786 18.695C9.92244 18.4204 9.92244 17.9752 9.64786 17.7006C9.37336 17.426 8.92815 17.426 8.65351 17.7006Z" fill="#00B871"/>
<path d="M9.12516 9.21209C8.85059 8.93752 8.40537 8.93752 8.13073 9.21209C7.85616 9.48666 7.85616 9.93188 8.13073 10.2065L8.65351 10.7293C8.79083 10.8666 8.97076 10.9352 9.15069 10.9352C9.33061 10.9352 9.51061 10.8666 9.64786 10.7293C9.92244 10.4547 9.92244 10.0095 9.64786 9.73487L9.12516 9.21209Z" fill="#00B871"/>
</svg>
