<svg width="36" height="33" viewBox="0 0 36 33" fill="none" xmlns="http://www.w3.org/2000/svg">
<path d="M19.4401 11.5946V12.9198L6.74048 17.0635V21.0716L8.50842 21.5549V28.1706H10.9434C11.6354 28.1706 12.1964 27.6096 12.1964 26.9176V22.5629L19.4401 24.5431V25.8683H22.5145V11.5946H19.4401Z" fill="#2FDF84"/>
<path d="M33.4191 0.502563H2.58089C1.15777 0.502563 0 1.66279 0 3.08894V30.3575C0 31.5374 0.95632 32.4974 2.13166 32.4974H33.8683C35.0437 32.4974 35.9999 31.5374 35.9999 30.3575V3.08894C36 1.66279 34.8422 0.502563 33.4191 0.502563ZM1.40625 3.08894C1.40625 2.43827 1.93317 1.90888 2.58089 1.90888H33.4191C34.0668 1.90888 34.5938 2.43827 34.5938 3.08894V7.26775H1.40625V3.08894ZM34.5938 30.3574C34.5938 30.762 34.2683 31.0911 33.8683 31.0911H2.13166C1.73166 31.0911 1.40625 30.762 1.40625 30.3574V8.67393H34.5938V30.3574Z" fill="#00B871"/>
<path d="M23.1308 3.88519H22.1863C21.7979 3.88519 21.4832 4.19998 21.4832 4.58832C21.4832 4.97665 21.7979 5.29144 22.1863 5.29144H23.1308C23.5191 5.29144 23.8339 4.97665 23.8339 4.58832C23.8339 4.19998 23.5191 3.88519 23.1308 3.88519Z" fill="#00B871"/>
<path d="M27.4994 3.88519H26.5549C26.1666 3.88519 25.8518 4.19998 25.8518 4.58832C25.8518 4.97665 26.1666 5.29144 26.5549 5.29144H27.4994C27.8878 5.29144 28.2026 4.97665 28.2026 4.58832C28.2026 4.19998 27.8878 3.88519 27.4994 3.88519Z" fill="#00B871"/>
<path d="M31.8683 3.88519H30.9238C30.5355 3.88519 30.2207 4.19998 30.2207 4.58832C30.2207 4.97665 30.5355 5.29144 30.9238 5.29144H31.8683C32.2567 5.29144 32.5715 4.97665 32.5715 4.58832C32.5715 4.19998 32.2567 3.88519 31.8683 3.88519Z" fill="#00B871"/>
<path d="M11.8277 3.88519H5.01099C4.62265 3.88519 4.30786 4.19998 4.30786 4.58832C4.30786 4.97665 4.62265 5.29144 5.01099 5.29144H11.8277C12.216 5.29144 12.5308 4.97665 12.5308 4.58832C12.5308 4.19998 12.216 3.88519 11.8277 3.88519Z" fill="#00B871"/>
<path d="M27.8534 18.7314C27.8534 19.6517 27.4962 20.5158 26.8476 21.1644C26.573 21.4389 26.5729 21.8842 26.8476 22.1587C26.9849 22.296 27.1648 22.3647 27.3447 22.3647C27.5247 22.3647 27.7047 22.296 27.8419 22.1587C28.7562 21.2445 29.2597 20.0273 29.2597 18.7313C29.2597 17.4354 28.7562 16.2182 27.842 15.3039C27.5674 15.0293 27.1222 15.0293 26.8476 15.3039C26.5731 15.5785 26.5731 16.0237 26.8476 16.2983C27.4962 16.947 27.8534 17.8112 27.8534 18.7314Z" fill="#00B871"/>
<path d="M24.6598 19.9712C24.7971 20.1085 24.977 20.1772 25.157 20.1772C25.3369 20.1772 25.5169 20.1085 25.6541 19.9712C26.3377 19.2876 26.3377 18.1752 25.6541 17.4916C25.3796 17.217 24.9344 17.217 24.6598 17.4916C24.3852 17.7661 24.3852 18.2114 24.6598 18.486C24.7482 18.5745 24.7615 18.6777 24.7615 18.7314C24.7615 18.7851 24.7482 18.8883 24.6598 18.9768C24.3852 19.2514 24.3852 19.6966 24.6598 19.9712Z" fill="#00B871"/>
</svg>
