<svg width="12" height="11" viewBox="0 0 12 11" fill="none" xmlns="http://www.w3.org/2000/svg">
<path d="M11.0884 6.17607C11.0094 6.11077 10.9136 6.06896 10.812 6.05542C10.7104 6.04187 10.6071 6.05713 10.5137 6.09945C9.93499 6.36428 9.30575 6.50059 8.6693 6.49898C7.49196 6.49756 6.36293 6.03073 5.52838 5.20028C4.69383 4.36983 4.22144 3.24311 4.21422 2.06579C4.21671 1.69682 4.26264 1.32942 4.35105 0.971181C4.36981 0.875697 4.36277 0.776938 4.33066 0.685078C4.29855 0.593219 4.24253 0.51158 4.16838 0.448574C4.09422 0.385568 4.00461 0.343473 3.90877 0.326625C3.81293 0.309777 3.71433 0.318786 3.62313 0.352724C2.76513 0.738525 2.01928 1.3361 1.45566 2.08932C0.892035 2.84254 0.529134 3.72667 0.401047 4.65865C0.272961 5.59064 0.383893 6.53989 0.723423 7.41723C1.06295 8.29458 1.61993 9.07121 2.34205 9.67417C3.06416 10.2771 3.92769 10.6866 4.85153 10.8642C5.77536 11.0418 6.72918 10.9816 7.62337 10.6893C8.51756 10.397 9.32276 9.8822 9.96335 9.19324C10.6039 8.50429 11.0589 7.66381 11.2854 6.75074C11.313 6.64621 11.309 6.53584 11.274 6.43356C11.2389 6.33129 11.1743 6.24169 11.0884 6.17607ZM5.88898 9.83756C4.97047 9.83108 4.07641 9.54084 3.32922 9.0066C2.58203 8.47235 2.01824 7.72021 1.71504 6.85316C1.41184 5.98611 1.38406 5.04653 1.63549 4.16308C1.88693 3.27963 2.40529 2.49549 3.1196 1.91802V2.06579C3.12105 3.53722 3.70622 4.94797 4.74667 5.98842C5.78713 7.02888 7.19787 7.61404 8.6693 7.61549C9.05563 7.61691 9.44099 7.57654 9.81864 7.49508C9.44095 8.2096 8.87534 8.80744 8.18283 9.2241C7.49031 9.64077 6.69718 9.86045 5.88898 9.85945V9.83756Z" fill="#161E2E"/>
</svg>
