<svg width="14" height="13" viewBox="0 0 14 13" fill="none" xmlns="http://www.w3.org/2000/svg">
<path d="M8.40994 6.49231L12.7099 2.20231C12.8982 2.01401 13.004 1.75861 13.004 1.49231C13.004 1.22601 12.8982 0.970616 12.7099 0.782312C12.5216 0.594008 12.2662 0.48822 11.9999 0.48822C11.7336 0.48822 11.4782 0.594008 11.2899 0.782312L6.99994 5.08231L2.70994 0.782312C2.52164 0.594008 2.26624 0.48822 1.99994 0.48822C1.73364 0.48822 1.47824 0.594008 1.28994 0.782312C1.10164 0.970616 0.995847 1.22601 0.995847 1.49231C0.995847 1.75861 1.10164 2.01401 1.28994 2.20231L5.58994 6.49231L1.28994 10.7823C1.19621 10.8753 1.12182 10.9859 1.07105 11.1077C1.02028 11.2296 0.994141 11.3603 0.994141 11.4923C0.994141 11.6243 1.02028 11.755 1.07105 11.8769C1.12182 11.9987 1.19621 12.1093 1.28994 12.2023C1.3829 12.296 1.4935 12.3704 1.61536 12.4212C1.73722 12.472 1.86793 12.4981 1.99994 12.4981C2.13195 12.4981 2.26266 12.472 2.38452 12.4212C2.50638 12.3704 2.61698 12.296 2.70994 12.2023L6.99994 7.90231L11.2899 12.2023C11.3829 12.296 11.4935 12.3704 11.6154 12.4212C11.7372 12.472 11.8679 12.4981 11.9999 12.4981C12.132 12.4981 12.2627 12.472 12.3845 12.4212C12.5064 12.3704 12.617 12.296 12.7099 12.2023C12.8037 12.1093 12.8781 11.9987 12.9288 11.8769C12.9796 11.755 13.0057 11.6243 13.0057 11.4923C13.0057 11.3603 12.9796 11.2296 12.9288 11.1077C12.8781 10.9859 12.8037 10.8753 12.7099 10.7823L8.40994 6.49231Z" fill="#161E2E"/>
</svg>
