<svg width="20" height="7" viewBox="0 0 20 7" fill="none" xmlns="http://www.w3.org/2000/svg">
<path d="M1 2.49231H19C19.2652 2.49231 19.5196 2.38695 19.7071 2.19942C19.8946 2.01188 20 1.75753 20 1.49231C20 1.22709 19.8946 0.972739 19.7071 0.785203C19.5196 0.597667 19.2652 0.49231 19 0.49231H1C0.734784 0.49231 0.48043 0.597667 0.292893 0.785203C0.105357 0.972739 0 1.22709 0 1.49231C0 1.75753 0.105357 2.01188 0.292893 2.19942C0.48043 2.38695 0.734784 2.49231 1 2.49231ZM19 4.49231H1C0.734784 4.49231 0.48043 4.59767 0.292893 4.7852C0.105357 4.97274 0 5.22709 0 5.49231C0 5.75753 0.105357 6.01188 0.292893 6.19942C0.48043 6.38695 0.734784 6.49231 1 6.49231H19C19.2652 6.49231 19.5196 6.38695 19.7071 6.19942C19.8946 6.01188 20 5.75753 20 5.49231C20 5.22709 19.8946 4.97274 19.7071 4.7852C19.5196 4.59767 19.2652 4.49231 19 4.49231Z" fill="#00B871"/>
</svg>
