<svg width="54" height="33" viewBox="0 0 54 33" fill="none" xmlns="http://www.w3.org/2000/svg">
<path d="M53.4533 1.65333C53.1827 1.00173 52.6649 0.483933 52.0133 0.213333C51.6927 0.0766905 51.3485 0.0042133 51 0H37.6667C36.9594 0 36.2811 0.280952 35.7811 0.781049C35.281 1.28115 35 1.95942 35 2.66667C35 3.37391 35.281 4.05219 35.7811 4.55228C36.2811 5.05238 36.9594 5.33333 37.6667 5.33333H44.5733L29.6667 20.24L20.8933 11.44C20.6454 11.1901 20.3505 10.9917 20.0255 10.8563C19.7006 10.7209 19.352 10.6512 19 10.6512C18.648 10.6512 18.2994 10.7209 17.9745 10.8563C17.6495 10.9917 17.3546 11.1901 17.1067 11.44L1.10667 27.44C0.856724 27.6879 0.658339 27.9828 0.522956 28.3078C0.387573 28.6328 0.317871 28.9813 0.317871 29.3333C0.317871 29.6854 0.387573 30.0339 0.522956 30.3589C0.658339 30.6838 0.856724 30.9788 1.10667 31.2267C1.35457 31.4766 1.6495 31.675 1.97446 31.8104C2.29942 31.9458 2.64797 32.0155 3 32.0155C3.35203 32.0155 3.70058 31.9458 4.02554 31.8104C4.3505 31.675 4.64543 31.4766 4.89333 31.2267L19 17.0933L27.7733 25.8933C28.0212 26.1433 28.3162 26.3417 28.6411 26.477C28.9661 26.6124 29.3146 26.6821 29.6667 26.6821C30.0187 26.6821 30.3672 26.6124 30.6922 26.477C31.0172 26.3417 31.3121 26.1433 31.56 25.8933L48.3333 9.09333V16C48.3333 16.7072 48.6143 17.3855 49.1144 17.8856C49.6145 18.3857 50.2928 18.6667 51 18.6667C51.7072 18.6667 52.3855 18.3857 52.8856 17.8856C53.3857 17.3855 53.6667 16.7072 53.6667 16V2.66667C53.6625 2.31819 53.59 1.97393 53.4533 1.65333V1.65333Z" fill="#00B871"/>
</svg>
