<svg width="12" height="12" viewBox="0 0 12 12" fill="none" xmlns="http://www.w3.org/2000/svg">
<path d="M2.21687 5.62883C2.21687 5.48368 2.15921 5.34447 2.05657 5.24183C1.95393 5.13919 1.81472 5.08153 1.66957 5.08153H1.12226C0.977103 5.08153 0.837894 5.13919 0.735254 5.24183C0.632614 5.34447 0.574951 5.48368 0.574951 5.62883C0.574951 5.77399 0.632614 5.9132 0.735254 6.01584C0.837894 6.11848 0.977103 6.17614 1.12226 6.17614H1.66957C1.81472 6.17614 1.95393 6.11848 2.05657 6.01584C2.15921 5.9132 2.21687 5.77399 2.21687 5.62883ZM2.56715 8.36537L2.17856 8.75396C2.07662 8.8565 2.01941 8.99522 2.01941 9.13981C2.01941 9.2844 2.07662 9.42312 2.17856 9.52566C2.28111 9.6276 2.41982 9.68481 2.56441 9.68481C2.709 9.68481 2.84772 9.6276 2.95026 9.52566L3.33885 9.13707C3.42852 9.03237 3.47537 8.89769 3.47005 8.75995C3.46473 8.6222 3.40763 8.49154 3.31015 8.39407C3.21268 8.2966 3.08202 8.23949 2.94427 8.23417C2.80653 8.22885 2.67185 8.27571 2.56715 8.36537V8.36537ZM6.04802 1.79768C6.19318 1.79768 6.33239 1.74002 6.43503 1.63738C6.53767 1.53474 6.59533 1.39553 6.59533 1.25038V0.703069C6.59533 0.557914 6.53767 0.418704 6.43503 0.316064C6.33239 0.213424 6.19318 0.155762 6.04802 0.155762C5.90287 0.155762 5.76366 0.213424 5.66102 0.316064C5.55838 0.418704 5.50072 0.557914 5.50072 0.703069V1.25038C5.50072 1.39553 5.55838 1.53474 5.66102 1.63738C5.76366 1.74002 5.90287 1.79768 6.04802 1.79768ZM9.14578 3.07838C9.28936 3.07778 9.42695 3.02077 9.5289 2.91966L9.91748 2.53107C9.97478 2.48201 10.0213 2.42163 10.0542 2.35373C10.087 2.28583 10.1055 2.21187 10.1084 2.1365C10.1113 2.06112 10.0986 1.98596 10.0711 1.91572C10.0436 1.84549 10.0018 1.7817 9.94849 1.72837C9.89515 1.67503 9.83136 1.63329 9.76113 1.60578C9.6909 1.57826 9.61574 1.56556 9.54036 1.56847C9.46499 1.57138 9.39103 1.58984 9.32312 1.6227C9.25522 1.65555 9.19485 1.70208 9.14578 1.75937L8.78456 2.14796C8.68262 2.2505 8.62541 2.38922 8.62541 2.53381C8.62541 2.6784 8.68262 2.81712 8.78456 2.91966C8.88104 3.01564 9.00983 3.07223 9.14578 3.07838V3.07838ZM2.5781 2.91966C2.68004 3.02077 2.81763 3.07778 2.96121 3.07838C3.03324 3.0788 3.10464 3.06499 3.17133 3.03776C3.23801 3.01052 3.29866 2.97039 3.3498 2.91966C3.45173 2.81712 3.50895 2.6784 3.50895 2.53381C3.50895 2.38922 3.45173 2.2505 3.3498 2.14796L2.96121 1.75937C2.91054 1.70798 2.85024 1.66708 2.78376 1.63899C2.71728 1.6109 2.64592 1.59618 2.57376 1.59568C2.50159 1.59517 2.43003 1.60888 2.36316 1.63603C2.29629 1.66318 2.23542 1.70323 2.18403 1.7539C2.13264 1.80457 2.09174 1.86487 2.06365 1.93135C2.03556 1.99782 2.02085 2.06919 2.02034 2.14135C2.01931 2.2871 2.07623 2.42729 2.17856 2.53107L2.5781 2.91966ZM10.9738 5.08153H10.4265C10.2813 5.08153 10.1421 5.13919 10.0395 5.24183C9.93683 5.34447 9.87917 5.48368 9.87917 5.62883C9.87917 5.77399 9.93683 5.9132 10.0395 6.01584C10.1421 6.11848 10.2813 6.17614 10.4265 6.17614H10.9738C11.1189 6.17614 11.2582 6.11848 11.3608 6.01584C11.4634 5.9132 11.5211 5.77399 11.5211 5.62883C11.5211 5.48368 11.4634 5.34447 11.3608 5.24183C11.2582 5.13919 11.1189 5.08153 10.9738 5.08153ZM9.5289 8.36537C9.42492 8.30753 9.30492 8.28516 9.18708 8.30163C9.06924 8.3181 8.95998 8.37253 8.87585 8.45666C8.79171 8.54079 8.73729 8.65005 8.72082 8.76789C8.70434 8.88573 8.72672 9.00573 8.78456 9.10971L9.17315 9.49829C9.27569 9.60023 9.41441 9.65745 9.559 9.65745C9.70359 9.65745 9.8423 9.60023 9.94485 9.49829C10.0468 9.39575 10.104 9.25703 10.104 9.11244C10.104 8.96785 10.0468 8.82914 9.94485 8.72659L9.5289 8.36537ZM6.04802 2.61864C5.45266 2.61864 4.87067 2.79519 4.37565 3.12595C3.88063 3.45672 3.4948 3.92684 3.26697 4.47688C3.03914 5.02692 2.97952 5.63217 3.09567 6.21609C3.21182 6.80001 3.49851 7.33638 3.9195 7.75736C4.34048 8.17834 4.87684 8.46503 5.46076 8.58118C6.04468 8.69733 6.64993 8.63772 7.19997 8.40989C7.75001 8.18205 8.22014 7.79623 8.5509 7.3012C8.88167 6.80618 9.05821 6.22419 9.05821 5.62883C9.05676 4.83093 8.73916 4.06611 8.17495 3.50191C7.61074 2.9377 6.84593 2.62009 6.04802 2.61864ZM6.04802 7.54441C5.66916 7.54441 5.2988 7.43206 4.98379 7.22158C4.66877 7.01109 4.42325 6.71192 4.27826 6.36189C4.13328 6.01187 4.09534 5.62671 4.16925 5.25512C4.24317 4.88354 4.42561 4.54222 4.69351 4.27432C4.9614 4.00642 5.30273 3.82398 5.67431 3.75007C6.0459 3.67615 6.43106 3.71409 6.78108 3.85907C7.13111 4.00406 7.43028 4.24958 7.64076 4.5646C7.85125 4.87961 7.9636 5.24997 7.9636 5.62883C7.9636 6.13688 7.76178 6.62411 7.40254 6.98335C7.0433 7.34259 6.55606 7.54441 6.04802 7.54441V7.54441ZM6.04802 9.45998C5.90287 9.45998 5.76366 9.51765 5.66102 9.62029C5.55838 9.72293 5.50072 9.86214 5.50072 10.0073V10.5546C5.50072 10.6998 5.55838 10.839 5.66102 10.9416C5.76366 11.0442 5.90287 11.1019 6.04802 11.1019C6.19318 11.1019 6.33239 11.0442 6.43503 10.9416C6.53767 10.839 6.59533 10.6998 6.59533 10.5546V10.0073C6.59533 9.86214 6.53767 9.72293 6.43503 9.62029C6.33239 9.51765 6.19318 9.45998 6.04802 9.45998Z" fill="black"/>
</svg>
