<svg width="15" height="12" viewBox="0 0 15 12" fill="none" xmlns="http://www.w3.org/2000/svg">
<path d="M14.2842 1.27895C14.1912 1.18522 14.0806 1.11083 13.9587 1.06006C13.8369 1.00929 13.7062 0.983154 13.5742 0.983154C13.4422 0.983154 13.3115 1.00929 13.1896 1.06006C13.0677 1.11083 12.9571 1.18522 12.8642 1.27895L5.41417 8.73895L2.28417 5.59895C2.18765 5.50571 2.07371 5.4324 1.94885 5.3832C1.824 5.33399 1.69067 5.30986 1.55649 5.31218C1.42231 5.3145 1.2899 5.34323 1.16682 5.39673C1.04374 5.45022 0.932407 5.52743 0.839168 5.62395C0.74593 5.72047 0.672616 5.83442 0.623412 5.95927C0.574208 6.08413 0.550078 6.21745 0.552399 6.35163C0.55472 6.48581 0.583448 6.61822 0.636942 6.7413C0.690435 6.86438 0.767647 6.97571 0.864168 7.06895L4.70417 10.909C4.79713 11.0027 4.90773 11.0771 5.02959 11.1278C5.15145 11.1786 5.28216 11.2048 5.41417 11.2048C5.54618 11.2048 5.67689 11.1786 5.79875 11.1278C5.9206 11.0771 6.03121 11.0027 6.12417 10.909L14.2842 2.74895C14.3857 2.65531 14.4667 2.54166 14.5221 2.41516C14.5775 2.28866 14.6061 2.15205 14.6061 2.01395C14.6061 1.87585 14.5775 1.73925 14.5221 1.61275C14.4667 1.48625 14.3857 1.37259 14.2842 1.27895Z" fill="#00B871"/>
</svg>
