<svg width="226" height="178" viewBox="0 0 226 178" fill="none" xmlns="http://www.w3.org/2000/svg">
<g clip-path="url(#clip0_144_8934)">
<rect x="0.665039" y="0.789429" width="224.785" height="177.198" rx="5.00913" fill="#F7F7F8"/>
<rect x="0.665039" y="0.789429" width="224.785" height="15.6535" fill="white"/>
<circle cx="11.3093" cy="8.92925" r="2.50457" fill="#2FDF84"/>
<circle cx="20.0754" cy="8.92925" r="2.50457" fill="#D2D6DC"/>
<circle cx="28.8415" cy="8.92925" r="2.50457" fill="#D2D6DC"/>
<path d="M91.3305 35.0924C91.1101 34.4412 90.6894 33.9002 90.0682 33.4494C89.4471 32.9986 88.6857 32.7682 87.7941 32.7682C86.7021 32.7682 85.7704 33.1589 84.9789 33.9303C84.1875 34.7017 83.7968 35.6634 83.7968 36.8155C83.7968 37.9676 84.1675 38.9294 84.9088 39.6808C85.6502 40.4321 86.6119 40.8128 87.7841 40.8128C88.8961 40.8128 89.7777 40.4722 90.4389 39.791C91.1101 39.0997 91.4407 38.2481 91.4407 37.2263V36.7955H87.2932V37.9175H90.1083C89.918 38.9494 89.0965 39.6808 87.774 39.6808C86.9926 39.6808 86.3515 39.4002 85.8405 38.8492C85.3296 38.2982 85.0791 37.607 85.0791 36.7855C85.0791 35.964 85.3396 35.2827 85.8505 34.7317C86.3715 34.1807 87.0127 33.9102 87.7841 33.9102C89.0263 33.9102 89.8278 34.5915 90.2385 35.5933L91.3305 35.0924ZM95.1228 35.2627C94.3414 35.2627 93.6702 35.5332 93.1192 36.0642C92.5682 36.5951 92.2877 37.2563 92.2877 38.0378C92.2877 38.8192 92.5582 39.4804 93.1092 40.0114C93.6602 40.5423 94.3314 40.8128 95.1128 40.8128C95.9043 40.8128 96.5655 40.5423 97.1064 40.0114C97.6574 39.4704 97.9279 38.8092 97.9279 38.0177C97.9279 37.2363 97.6574 36.5851 97.1064 36.0541C96.5554 35.5232 95.8942 35.2627 95.1228 35.2627ZM93.9507 36.8356C94.2512 36.505 94.642 36.3447 95.1128 36.3447C95.5837 36.3447 95.9744 36.505 96.2649 36.8356C96.5655 37.1662 96.7157 37.5669 96.7157 38.0378C96.7157 38.5086 96.5655 38.9094 96.2749 39.24C95.9844 39.5706 95.5937 39.7308 95.1228 39.7308C94.652 39.7308 94.2613 39.5605 93.9607 39.2299C93.6602 38.8893 93.5099 38.4886 93.5099 38.0177C93.5099 37.5469 93.6602 37.1562 93.9507 36.8356ZM101.639 35.2627C100.857 35.2627 100.186 35.5332 99.635 36.0642C99.084 36.5951 98.8034 37.2563 98.8034 38.0378C98.8034 38.8192 99.0739 39.4804 99.6249 40.0114C100.176 40.5423 100.847 40.8128 101.629 40.8128C102.42 40.8128 103.081 40.5423 103.622 40.0114C104.173 39.4704 104.444 38.8092 104.444 38.0177C104.444 37.2363 104.173 36.5851 103.622 36.0541C103.071 35.5232 102.41 35.2627 101.639 35.2627ZM100.466 36.8356C100.767 36.505 101.158 36.3447 101.629 36.3447C102.099 36.3447 102.49 36.505 102.781 36.8356C103.081 37.1662 103.232 37.5669 103.232 38.0378C103.232 38.5086 103.081 38.9094 102.791 39.24C102.5 39.5706 102.109 39.7308 101.639 39.7308C101.168 39.7308 100.777 39.5605 100.476 39.2299C100.176 38.8893 100.026 38.4886 100.026 38.0177C100.026 37.5469 100.176 37.1562 100.466 36.8356ZM107.924 40.7627C108.204 40.7627 108.515 40.6926 108.866 40.5423C109.216 40.3921 109.487 40.1717 109.677 39.8611V40.7026C109.677 41.7746 108.986 42.3356 108.054 42.3356C107.303 42.3356 106.742 41.9549 106.371 41.2035L105.379 41.7746C105.87 42.8565 106.772 43.3975 108.074 43.3975C108.916 43.3975 109.587 43.1471 110.098 42.6562C110.609 42.1653 110.869 41.4941 110.869 40.6525V35.3729H109.707V36.1844C109.517 35.8838 109.246 35.6634 108.906 35.5132C108.565 35.3629 108.255 35.2827 107.964 35.2827C107.173 35.2827 106.531 35.5633 106.041 36.1243C105.56 36.6853 105.319 37.3164 105.319 38.0277C105.319 38.7691 105.56 39.4103 106.051 39.9513C106.541 40.4922 107.173 40.7627 107.924 40.7627ZM109.697 38.0077C109.697 38.4786 109.547 38.8793 109.246 39.2099C108.956 39.5305 108.575 39.6908 108.104 39.6908C107.633 39.6908 107.253 39.5305 106.952 39.2099C106.662 38.8793 106.511 38.4786 106.511 38.0077C106.511 37.5368 106.662 37.1361 106.952 36.8256C107.243 36.505 107.633 36.3447 108.104 36.3447C108.575 36.3447 108.966 36.505 109.256 36.8256C109.547 37.1461 109.697 37.5368 109.697 38.0077ZM112.47 40.7227H113.662V32.5678H112.47V40.7227ZM120.177 38.3984C120.187 38.3083 120.197 38.188 120.197 38.0277C120.197 37.1962 119.967 36.535 119.506 36.0241C119.045 35.5132 118.404 35.2627 117.592 35.2627C116.821 35.2627 116.18 35.5332 115.669 36.0742C115.158 36.6152 114.897 37.2664 114.897 38.0378C114.897 38.8292 115.168 39.5004 115.699 40.0314C116.24 40.5624 116.911 40.8228 117.703 40.8228C118.664 40.8228 119.536 40.362 119.987 39.5305L119.125 38.9594C118.835 39.5104 118.354 39.791 117.683 39.791C117.272 39.791 116.911 39.6607 116.601 39.4002C116.29 39.1298 116.13 38.7992 116.12 38.3984H120.177ZM117.592 36.2846C118.354 36.2846 118.945 36.7454 118.985 37.4968H116.18C116.29 36.7654 116.861 36.2846 117.592 36.2846ZM122.988 40.7227H124.25L124.971 38.8793H128.818L129.53 40.7227H130.812L127.636 32.8784H126.184L122.988 40.7227ZM126.895 34.0605L128.388 37.7873H125.412L126.895 34.0605ZM131.216 38.0378C131.216 38.7791 131.466 39.4303 131.967 39.9813C132.468 40.5323 133.099 40.8028 133.851 40.8028C134.131 40.8028 134.452 40.7327 134.813 40.5824C135.183 40.4321 135.454 40.2017 135.644 39.8911V40.7227H136.806V32.5678H135.614V36.1343C135.434 35.8438 135.173 35.6334 134.823 35.4931C134.482 35.3429 134.171 35.2727 133.881 35.2727C133.089 35.2727 132.438 35.5532 131.947 36.1143C131.456 36.6753 131.216 37.3164 131.216 38.0378ZM134.031 36.3447C134.502 36.3447 134.883 36.505 135.183 36.8356C135.484 37.1662 135.634 37.5669 135.634 38.0378C135.634 38.5086 135.484 38.9094 135.183 39.24C134.893 39.5605 134.502 39.7208 134.031 39.7208C133.56 39.7208 133.17 39.5605 132.869 39.24C132.579 38.9094 132.428 38.5086 132.428 38.0378C132.428 37.5669 132.579 37.1662 132.869 36.8356C133.17 36.505 133.56 36.3447 134.031 36.3447ZM140.139 40.8128C140.74 40.8128 141.231 40.6625 141.602 40.352C141.972 40.0414 142.163 39.6407 142.163 39.1498C142.163 38.3183 141.521 37.7372 140.309 37.4667C139.618 37.3164 139.317 37.1361 139.317 36.7855C139.317 36.495 139.698 36.2645 140.069 36.2645C140.58 36.2645 140.95 36.505 141.191 36.9858L142.113 36.4649C141.742 35.6634 141.071 35.2627 140.109 35.2627C139.588 35.2627 139.137 35.413 138.746 35.7235C138.356 36.0341 138.165 36.4248 138.165 36.9057C138.165 37.2864 138.296 37.607 138.546 37.8775C138.837 38.188 139.287 38.3984 139.878 38.5186C140.61 38.6689 140.98 38.9094 140.98 39.2199C140.98 39.5806 140.59 39.811 140.139 39.811C139.568 39.811 139.147 39.5205 138.857 38.9494L137.925 39.4704C138.336 40.362 139.077 40.8128 140.139 40.8128Z" fill="#2FDF84"/>
<g filter="url(#filter0_d_144_8934)">
<rect x="82.0635" y="58.3944" width="61.988" height="67.6233" rx="3.75685" fill="#F4FBF7"/>
<rect x="82.3765" y="58.7075" width="61.3618" height="66.9971" rx="3.44378" stroke="#D2D6DC" stroke-width="0.626141"/>
</g>
<rect x="82.0635" y="133.531" width="46.9606" height="2.50457" rx="1.25228" fill="#D2D6DC"/>
<rect x="82.0635" y="139.167" width="61.988" height="2.50457" rx="1.25228" fill="#D2D6DC"/>
<rect x="82.0635" y="144.802" width="61.988" height="2.50457" rx="1.25228" fill="#D2D6DC"/>
<g filter="url(#filter1_d_144_8934)">
<rect x="152.817" y="58.3944" width="61.988" height="67.6233" rx="3.75685" fill="#F4FBF7"/>
<rect x="153.13" y="58.7075" width="61.3618" height="66.9971" rx="3.44378" stroke="#D2D6DC" stroke-width="0.626141"/>
</g>
<rect x="152.817" y="133.531" width="46.9606" height="2.50457" rx="1.25228" fill="#D2D6DC"/>
<rect x="152.817" y="139.167" width="61.988" height="2.50457" rx="1.25228" fill="#D2D6DC"/>
<rect x="152.817" y="144.802" width="61.988" height="2.50457" rx="1.25228" fill="#D2D6DC"/>
<rect x="11.3091" y="133.531" width="46.9606" height="2.50457" rx="1.25228" fill="#2FDF84"/>
<rect x="11.3091" y="139.167" width="61.988" height="2.50457" rx="1.25228" fill="#D2D6DC"/>
<rect x="11.3091" y="144.802" width="61.988" height="2.50457" rx="1.25228" fill="#D2D6DC"/>
<g filter="url(#filter2_d_144_8934)">
<rect x="11.3096" y="58.3944" width="61.988" height="67.6233" rx="3.75685" fill="white"/>
<rect x="11.6226" y="58.7075" width="61.3618" height="66.9971" rx="3.44378" stroke="#D2D6DC" stroke-width="0.626141"/>
</g>
<g filter="url(#filter3_d_144_8934)">
<g clip-path="url(#clip1_144_8934)">
<rect x="34.4766" y="77.8048" width="15.2263" height="29.4144" rx="2.76842" fill="#F7F7F8"/>
<g clip-path="url(#clip2_144_8934)">
<rect width="14.5342" height="3.11447" transform="translate(34.8232 77.8048)" fill="white"/>
<circle cx="39.8404" cy="79.708" r="0.519078" fill="#2FDF84"/>
<rect x="41.3975" y="79.535" width="3.46052" height="0.346052" rx="0.173026" fill="#2FDF84"/>
</g>
<rect x="34.6496" y="81.0922" width="14.8802" height="23.1855" fill="#F4FBF7"/>
<rect x="34.6496" y="81.0922" width="14.8802" height="23.1855" stroke="#2FDF84" stroke-width="0.346052"/>
<g clip-path="url(#clip3_144_8934)">
<circle cx="42.2629" cy="105.662" r="0.692104" fill="#2FDF84"/>
</g>
</g>
<rect x="34.6496" y="77.9778" width="14.8802" height="29.0684" rx="2.59539" stroke="#00B871" stroke-width="0.346052"/>
</g>
</g>
<rect x="0.97811" y="1.1025" width="224.159" height="176.572" rx="4.69606" stroke="#D2D6DC" stroke-width="0.626141"/>
<defs>
<filter id="filter0_d_144_8934" x="77.0635" y="53.3944" width="73.9878" height="79.6233" filterUnits="userSpaceOnUse" color-interpolation-filters="sRGB">
<feFlood flood-opacity="0" result="BackgroundImageFix"/>
<feColorMatrix in="SourceAlpha" type="matrix" values="0 0 0 0 0 0 0 0 0 0 0 0 0 0 0 0 0 0 127 0" result="hardAlpha"/>
<feOffset dx="1" dy="1"/>
<feGaussianBlur stdDeviation="3"/>
<feComposite in2="hardAlpha" operator="out"/>
<feColorMatrix type="matrix" values="0 0 0 0 0 0 0 0 0 0.721569 0 0 0 0 0.443137 0 0 0 0.15 0"/>
<feBlend mode="normal" in2="BackgroundImageFix" result="effect1_dropShadow_144_8934"/>
<feBlend mode="normal" in="SourceGraphic" in2="effect1_dropShadow_144_8934" result="shape"/>
</filter>
<filter id="filter1_d_144_8934" x="147.817" y="53.3944" width="73.9878" height="79.6233" filterUnits="userSpaceOnUse" color-interpolation-filters="sRGB">
<feFlood flood-opacity="0" result="BackgroundImageFix"/>
<feColorMatrix in="SourceAlpha" type="matrix" values="0 0 0 0 0 0 0 0 0 0 0 0 0 0 0 0 0 0 127 0" result="hardAlpha"/>
<feOffset dx="1" dy="1"/>
<feGaussianBlur stdDeviation="3"/>
<feComposite in2="hardAlpha" operator="out"/>
<feColorMatrix type="matrix" values="0 0 0 0 0 0 0 0 0 0.721569 0 0 0 0 0.443137 0 0 0 0.15 0"/>
<feBlend mode="normal" in2="BackgroundImageFix" result="effect1_dropShadow_144_8934"/>
<feBlend mode="normal" in="SourceGraphic" in2="effect1_dropShadow_144_8934" result="shape"/>
</filter>
<filter id="filter2_d_144_8934" x="-8.69043" y="44.3944" width="101.988" height="107.623" filterUnits="userSpaceOnUse" color-interpolation-filters="sRGB">
<feFlood flood-opacity="0" result="BackgroundImageFix"/>
<feColorMatrix in="SourceAlpha" type="matrix" values="0 0 0 0 0 0 0 0 0 0 0 0 0 0 0 0 0 0 127 0" result="hardAlpha"/>
<feMorphology radius="4" operator="dilate" in="SourceAlpha" result="effect1_dropShadow_144_8934"/>
<feOffset dy="6"/>
<feGaussianBlur stdDeviation="8"/>
<feComposite in2="hardAlpha" operator="out"/>
<feColorMatrix type="matrix" values="0 0 0 0 0.184314 0 0 0 0 0.87451 0 0 0 0 0.517647 0 0 0 0.15 0"/>
<feBlend mode="normal" in2="BackgroundImageFix" result="effect1_dropShadow_144_8934"/>
<feBlend mode="normal" in="SourceGraphic" in2="effect1_dropShadow_144_8934" result="shape"/>
</filter>
<filter id="filter3_d_144_8934" x="32.7463" y="76.0745" width="19.3787" height="33.5671" filterUnits="userSpaceOnUse" color-interpolation-filters="sRGB">
<feFlood flood-opacity="0" result="BackgroundImageFix"/>
<feColorMatrix in="SourceAlpha" type="matrix" values="0 0 0 0 0 0 0 0 0 0 0 0 0 0 0 0 0 0 127 0" result="hardAlpha"/>
<feOffset dx="0.346052" dy="0.346052"/>
<feGaussianBlur stdDeviation="1.03816"/>
<feComposite in2="hardAlpha" operator="out"/>
<feColorMatrix type="matrix" values="0 0 0 0 0 0 0 0 0 0.721569 0 0 0 0 0.443137 0 0 0 0.15 0"/>
<feBlend mode="normal" in2="BackgroundImageFix" result="effect1_dropShadow_144_8934"/>
<feBlend mode="normal" in="SourceGraphic" in2="effect1_dropShadow_144_8934" result="shape"/>
</filter>
<clipPath id="clip0_144_8934">
<rect x="0.665039" y="0.789429" width="224.785" height="177.198" rx="5.00913" fill="white"/>
</clipPath>
<clipPath id="clip1_144_8934">
<rect x="34.4766" y="77.8048" width="15.2263" height="29.4144" rx="2.76842" fill="white"/>
</clipPath>
<clipPath id="clip2_144_8934">
<rect width="14.5342" height="3.11447" fill="white" transform="translate(34.8232 77.8048)"/>
</clipPath>
<clipPath id="clip3_144_8934">
<rect width="14.8802" height="2.42236" fill="white" transform="translate(34.4766 104.451)"/>
</clipPath>
</defs>
</svg>
