<svg width="367" height="303" viewBox="0 0 367 303" fill="none" xmlns="http://www.w3.org/2000/svg">
<g filter="url(#filter0_d_146_9892)">
<g clip-path="url(#clip0_146_9892)">
<rect x="20.5742" y="14.5732" width="326.218" height="261.996" rx="8" fill="#F4FBF7"/>
<rect x="20.5742" y="14.5732" width="326.218" height="22.7171" fill="white"/>
<circle cx="36.0219" cy="26.3862" r="3.63474" fill="#2FDF84"/>
<circle cx="48.7436" cy="26.3862" r="3.63474" fill="#D2D6DC"/>
<circle cx="61.4653" cy="26.3862" r="3.63474" fill="#D2D6DC"/>
<path d="M160.693 131.451C160.214 130.033 159.298 128.855 157.945 127.874C156.593 126.893 154.936 126.391 152.995 126.391C150.618 126.391 148.59 127.242 146.867 128.921C145.144 130.6 144.293 132.694 144.293 135.202C144.293 137.71 145.1 139.803 146.714 141.439C148.328 143.075 150.422 143.903 152.973 143.903C155.394 143.903 157.313 143.162 158.752 141.679C160.214 140.174 160.933 138.32 160.933 136.096V135.158H151.905V137.601H158.033C157.618 139.847 155.83 141.439 152.951 141.439C151.25 141.439 149.855 140.828 148.742 139.629C147.63 138.429 147.085 136.925 147.085 135.136C147.085 133.348 147.652 131.865 148.764 130.666C149.898 129.466 151.294 128.877 152.973 128.877C155.677 128.877 157.422 130.36 158.316 132.541L160.693 131.451ZM168.949 131.821C167.248 131.821 165.786 132.41 164.587 133.566C163.388 134.722 162.777 136.161 162.777 137.862C162.777 139.563 163.366 141.003 164.565 142.159C165.765 143.314 167.226 143.903 168.927 143.903C170.65 143.903 172.089 143.314 173.267 142.159C174.466 140.981 175.055 139.542 175.055 137.819C175.055 136.118 174.466 134.7 173.267 133.544C172.067 132.388 170.628 131.821 168.949 131.821ZM166.397 135.245C167.051 134.526 167.902 134.177 168.927 134.177C169.952 134.177 170.802 134.526 171.435 135.245C172.089 135.965 172.416 136.837 172.416 137.862C172.416 138.887 172.089 139.76 171.457 140.479C170.824 141.199 169.974 141.548 168.949 141.548C167.924 141.548 167.073 141.177 166.419 140.458C165.765 139.716 165.438 138.844 165.438 137.819C165.438 136.794 165.765 135.943 166.397 135.245ZM183.133 131.821C181.432 131.821 179.97 132.41 178.771 133.566C177.572 134.722 176.961 136.161 176.961 137.862C176.961 139.563 177.55 141.003 178.749 142.159C179.949 143.314 181.41 143.903 183.111 143.903C184.834 143.903 186.273 143.314 187.451 142.159C188.65 140.981 189.239 139.542 189.239 137.819C189.239 136.118 188.65 134.7 187.451 133.544C186.251 132.388 184.812 131.821 183.133 131.821ZM180.581 135.245C181.235 134.526 182.086 134.177 183.111 134.177C184.136 134.177 184.986 134.526 185.619 135.245C186.273 135.965 186.6 136.837 186.6 137.862C186.6 138.887 186.273 139.76 185.641 140.479C185.008 141.199 184.158 141.548 183.133 141.548C182.108 141.548 181.257 141.177 180.603 140.458C179.949 139.716 179.622 138.844 179.622 137.819C179.622 136.794 179.949 135.943 180.581 135.245ZM196.815 143.794C197.426 143.794 198.102 143.642 198.865 143.314C199.628 142.987 200.217 142.508 200.632 141.832V143.663C200.632 145.997 199.127 147.218 197.099 147.218C195.463 147.218 194.242 146.389 193.435 144.754L191.276 145.997C192.344 148.352 194.307 149.53 197.142 149.53C198.974 149.53 200.435 148.985 201.548 147.916C202.66 146.847 203.227 145.386 203.227 143.554V132.061H200.697V133.828C200.283 133.174 199.694 132.694 198.952 132.367C198.211 132.04 197.535 131.865 196.902 131.865C195.179 131.865 193.784 132.476 192.715 133.697C191.668 134.918 191.145 136.292 191.145 137.841C191.145 139.454 191.668 140.85 192.737 142.028C193.806 143.205 195.179 143.794 196.815 143.794ZM200.675 137.797C200.675 138.822 200.348 139.694 199.694 140.414C199.061 141.112 198.233 141.461 197.208 141.461C196.183 141.461 195.354 141.112 194.7 140.414C194.067 139.694 193.74 138.822 193.74 137.797C193.74 136.772 194.067 135.9 194.7 135.224C195.332 134.526 196.183 134.177 197.208 134.177C198.233 134.177 199.083 134.526 199.716 135.224C200.348 135.921 200.675 136.772 200.675 137.797ZM206.711 143.707H209.306V125.955H206.711V143.707ZM223.489 138.647C223.51 138.451 223.532 138.189 223.532 137.841C223.532 136.03 223.031 134.591 222.027 133.479C221.024 132.367 219.628 131.821 217.862 131.821C216.183 131.821 214.787 132.41 213.675 133.588C212.563 134.766 211.996 136.183 211.996 137.862C211.996 139.585 212.584 141.046 213.74 142.202C214.918 143.358 216.379 143.925 218.102 143.925C220.195 143.925 222.093 142.922 223.074 141.112L221.199 139.869C220.566 141.068 219.519 141.679 218.058 141.679C217.164 141.679 216.379 141.395 215.703 140.828C215.027 140.239 214.678 139.52 214.656 138.647H223.489ZM217.862 134.046C219.519 134.046 220.806 135.049 220.893 136.685H214.787C215.027 135.093 216.27 134.046 217.862 134.046Z" fill="#00B871"/>
<rect x="102.81" y="161.326" width="162.655" height="24.5345" rx="4.99777" fill="white"/>
<path d="M119.221 175.199C119.774 175.199 120.217 175.047 120.552 174.734C120.886 174.421 121.053 174.043 121.053 173.607C121.053 173.251 120.922 172.931 120.661 172.648C120.377 172.335 119.897 172.095 119.229 171.928C118.363 171.703 118.015 171.426 118.015 170.91C118.015 170.627 118.131 170.394 118.363 170.212C118.596 170.031 118.872 169.943 119.192 169.943C119.817 169.943 120.254 170.249 120.493 170.852L121.002 170.569C120.733 169.849 120.108 169.384 119.207 169.384C118.712 169.384 118.291 169.529 117.942 169.813C117.593 170.096 117.418 170.467 117.418 170.939C117.418 171.732 117.956 172.233 119.119 172.517C119.992 172.728 120.443 173.069 120.443 173.651C120.443 173.942 120.326 174.182 120.086 174.363C119.854 174.545 119.563 174.64 119.221 174.64C118.487 174.64 118.058 174.247 117.767 173.542L117.251 173.811C117.6 174.734 118.254 175.199 119.221 175.199ZM125.531 173.375C125.538 173.338 125.538 173.273 125.538 173.186C125.538 172.597 125.378 172.124 125.058 171.754C124.738 171.383 124.288 171.194 123.706 171.194C123.175 171.194 122.725 171.39 122.361 171.79C121.998 172.19 121.816 172.655 121.816 173.193C121.816 173.753 122.005 174.232 122.383 174.625C122.761 175.01 123.226 175.207 123.786 175.207C124.484 175.207 125.102 174.843 125.429 174.203L125.007 173.927C124.782 174.392 124.324 174.705 123.779 174.705C123.401 174.705 123.081 174.581 122.819 174.327C122.557 174.072 122.412 173.753 122.39 173.375H125.531ZM122.398 172.895C122.448 172.56 122.594 172.277 122.841 172.044C123.088 171.804 123.379 171.688 123.706 171.688C124.433 171.688 124.884 172.168 124.964 172.895H122.398ZM127.78 172.902C127.373 172.902 127.017 172.997 126.704 173.178C126.399 173.36 126.246 173.636 126.246 174.022V174.065C126.246 174.392 126.362 174.669 126.602 174.887C126.842 175.097 127.162 175.207 127.547 175.207C128.1 175.207 128.536 174.959 128.856 174.458H128.863V175.141H129.416V172.633C129.416 172.393 129.379 172.182 129.299 171.993C129.067 171.463 128.594 171.194 127.882 171.194C127.111 171.194 126.581 171.528 126.29 172.197L126.755 172.459C126.995 171.95 127.366 171.695 127.867 171.695C128.529 171.695 128.856 172.008 128.856 172.64V172.902H127.78ZM128.856 173.505C128.856 173.862 128.74 174.145 128.514 174.371C128.289 174.596 127.998 174.705 127.649 174.705C127.162 174.705 126.813 174.451 126.813 174.022C126.835 173.513 127.329 173.36 127.773 173.367H128.856V173.505ZM130.647 171.259V175.141H131.214V173.244C131.214 172.844 131.308 172.51 131.505 172.226C131.701 171.943 132.006 171.797 132.428 171.797C132.479 171.797 132.551 171.804 132.646 171.812V171.208C132.617 171.201 132.551 171.201 132.457 171.201C131.963 171.201 131.476 171.47 131.207 172.03V171.259H130.647ZM133.572 173.178C133.572 172.764 133.702 172.415 133.964 172.132C134.233 171.841 134.567 171.695 134.975 171.695C135.614 171.695 136.014 172.059 136.189 172.546L136.683 172.328C136.457 171.681 135.847 171.194 134.975 171.194C134.422 171.194 133.95 171.39 133.564 171.775C133.179 172.161 132.99 172.64 132.99 173.2C132.99 173.774 133.179 174.254 133.557 174.64C133.942 175.018 134.407 175.207 134.967 175.207C135.847 175.207 136.457 174.719 136.697 174.051L136.203 173.833C135.978 174.414 135.563 174.705 134.975 174.705C134.56 174.705 134.226 174.552 133.964 174.254C133.702 173.956 133.572 173.593 133.572 173.178ZM140.998 175.141V172.742C140.998 171.812 140.46 171.187 139.53 171.187C138.955 171.187 138.512 171.441 138.199 171.957V169.224H137.632V175.141H138.199V172.931C138.199 172.582 138.308 172.291 138.526 172.059C138.745 171.819 139.021 171.703 139.355 171.703C140.053 171.703 140.431 172.161 140.431 172.88V175.141H140.998Z" fill="#2FDF84"/>
<path d="M250.34 177.36L248.654 175.688C249.309 174.872 249.626 173.837 249.54 172.794C249.454 171.752 248.972 170.782 248.194 170.084C247.415 169.386 246.398 169.013 245.353 169.042C244.307 169.071 243.313 169.499 242.573 170.238C241.834 170.978 241.406 171.972 241.377 173.018C241.348 174.063 241.721 175.08 242.419 175.859C243.117 176.637 244.087 177.119 245.129 177.205C246.172 177.291 247.207 176.974 248.023 176.32L249.695 177.991C249.737 178.034 249.787 178.068 249.843 178.091C249.898 178.114 249.958 178.126 250.017 178.126C250.077 178.126 250.137 178.114 250.192 178.091C250.248 178.068 250.298 178.034 250.34 177.991C250.422 177.907 250.468 177.794 250.468 177.676C250.468 177.558 250.422 177.445 250.34 177.36ZM245.474 176.32C244.845 176.32 244.23 176.133 243.707 175.784C243.184 175.434 242.776 174.937 242.536 174.356C242.295 173.775 242.232 173.136 242.355 172.519C242.477 171.902 242.78 171.335 243.225 170.89C243.67 170.445 244.237 170.143 244.854 170.02C245.471 169.897 246.11 169.96 246.691 170.201C247.272 170.442 247.769 170.849 248.118 171.372C248.468 171.895 248.654 172.51 248.654 173.139C248.654 173.983 248.319 174.792 247.723 175.388C247.127 175.984 246.318 176.32 245.474 176.32Z" fill="#2FDF84"/>
<rect x="102.81" y="161.326" width="162.655" height="24.5345" rx="4.99777" stroke="#D2D6DC" stroke-width="0.908686"/>
</g>
<rect x="21.0742" y="15.0732" width="325.218" height="260.996" rx="7.5" stroke="#D2D6DC"/>
</g>
<defs>
<filter id="filter0_d_146_9892" x="0.574219" y="0.573242" width="366.218" height="301.996" filterUnits="userSpaceOnUse" color-interpolation-filters="sRGB">
<feFlood flood-opacity="0" result="BackgroundImageFix"/>
<feColorMatrix in="SourceAlpha" type="matrix" values="0 0 0 0 0 0 0 0 0 0 0 0 0 0 0 0 0 0 127 0" result="hardAlpha"/>
<feMorphology radius="4" operator="dilate" in="SourceAlpha" result="effect1_dropShadow_146_9892"/>
<feOffset dy="6"/>
<feGaussianBlur stdDeviation="8"/>
<feComposite in2="hardAlpha" operator="out"/>
<feColorMatrix type="matrix" values="0 0 0 0 0.184314 0 0 0 0 0.87451 0 0 0 0 0.517647 0 0 0 0.15 0"/>
<feBlend mode="normal" in2="BackgroundImageFix" result="effect1_dropShadow_146_9892"/>
<feBlend mode="normal" in="SourceGraphic" in2="effect1_dropShadow_146_9892" result="shape"/>
</filter>
<clipPath id="clip0_146_9892">
<rect x="20.5742" y="14.5732" width="326.218" height="261.996" rx="8" fill="white"/>
</clipPath>
</defs>
</svg>
