<svg width="257" height="263" viewBox="0 0 257 263" fill="none" xmlns="http://www.w3.org/2000/svg">
<g filter="url(#filter0_d_146_9894)">
<g clip-path="url(#clip0_146_9894)">
<rect x="20.9077" y="14.5688" width="215.984" height="222" rx="4.81301" fill="#F7F7F8"/>
<rect x="20.9077" y="14.5688" width="215.984" height="15.0407" fill="white"/>
<circle cx="31.1355" cy="22.3899" r="2.4065" fill="#2FDF84"/>
<circle cx="39.5584" cy="22.3899" r="2.4065" fill="#D2D6DC"/>
<circle cx="47.9807" cy="22.3899" r="2.4065" fill="#D2D6DC"/>
<rect x="87.0864" y="18.1787" width="84.2276" height="7.82114" rx="1.20325" fill="#F7F7F8"/>
<path d="M120.479 20.0283C120.591 20.1402 120.764 20.1402 120.876 20.0283C120.988 19.9164 120.988 19.7431 120.876 19.6312C120.764 19.5157 120.591 19.5157 120.479 19.6312C120.367 19.7431 120.367 19.9164 120.479 20.0283ZM120.894 20.4542H120.465V22.3818H120.894V20.4542ZM123.198 22.3818V21.1942C123.198 20.7322 122.949 20.4145 122.476 20.4145C122.231 20.4145 122.036 20.5156 121.888 20.7141V20.4542H121.469V22.3818H121.899V21.3097C121.899 21.0173 122.072 20.8224 122.343 20.8224C122.628 20.8224 122.769 21.0137 122.769 21.3025V22.3818H123.198ZM124.378 22.4143C124.595 22.4143 124.771 22.3602 124.905 22.2483C125.039 22.1364 125.107 21.992 125.107 21.8151C125.107 21.5155 124.876 21.3061 124.439 21.2087C124.19 21.1545 124.082 21.0895 124.082 20.9632C124.082 20.8585 124.219 20.7755 124.353 20.7755C124.537 20.7755 124.67 20.8621 124.757 21.0354L125.089 20.8477C124.956 20.5589 124.714 20.4145 124.367 20.4145C124.179 20.4145 124.017 20.4687 123.876 20.5806C123.735 20.6925 123.667 20.8333 123.667 21.0065C123.667 21.1437 123.714 21.2592 123.804 21.3567C123.909 21.4686 124.071 21.5444 124.284 21.5877C124.548 21.6418 124.681 21.7285 124.681 21.8404C124.681 21.9703 124.54 22.0533 124.378 22.0533C124.172 22.0533 124.021 21.9487 123.916 21.7429L123.58 21.9306C123.728 22.2519 123.995 22.4143 124.378 22.4143ZM126.588 20.8405V20.4542H126.115V19.8586H125.685V20.4542H125.332V20.8405H125.685V21.761C125.685 22.1797 125.931 22.4035 126.353 22.4035C126.436 22.4035 126.516 22.3891 126.584 22.3638V21.9992C126.537 22.01 126.49 22.0136 126.447 22.0136C126.227 22.0136 126.115 21.9234 126.115 21.6924V20.8405H126.588ZM128.14 21.0751C128.14 21.1834 128.079 21.2375 127.959 21.2375H127.721C127.382 21.2375 126.92 21.3783 126.92 21.8259V21.8476C126.92 22.0136 126.981 22.1508 127.104 22.2555C127.227 22.3602 127.382 22.4143 127.57 22.4143C127.83 22.4143 128.017 22.3169 128.136 22.1183V22.3818H128.559V21.1545C128.559 21.021 128.537 20.9054 128.494 20.808C128.375 20.5445 128.133 20.4145 127.772 20.4145C127.378 20.4145 127.104 20.577 126.952 20.9054L127.281 21.0932C127.378 20.8874 127.541 20.7863 127.761 20.7863C128.003 20.7863 128.14 20.9163 128.14 21.0751ZM128.136 21.6021C128.136 21.8909 127.949 22.0714 127.656 22.0714C127.472 22.0714 127.349 21.9667 127.349 21.8079C127.349 21.7249 127.389 21.6599 127.465 21.613C127.544 21.566 127.631 21.5408 127.721 21.5408H128.136V21.6021ZM129.92 22.3963C130.021 22.3963 130.133 22.371 130.26 22.3169C130.386 22.2627 130.483 22.1833 130.552 22.0714V22.3746C130.552 22.7609 130.303 22.963 129.967 22.963C129.696 22.963 129.494 22.8258 129.361 22.5551L129.003 22.7609C129.18 23.1507 129.505 23.3456 129.974 23.3456C130.278 23.3456 130.519 23.2554 130.704 23.0785C130.888 22.9016 130.982 22.6598 130.982 22.3566V20.4542H130.563V20.7466C130.494 20.6383 130.397 20.5589 130.274 20.5048C130.151 20.4506 130.039 20.4217 129.935 20.4217C129.65 20.4217 129.419 20.5228 129.242 20.725C129.068 20.9271 128.982 21.1545 128.982 21.4108C128.982 21.6779 129.068 21.909 129.245 22.1039C129.422 22.2988 129.65 22.3963 129.92 22.3963ZM130.559 21.4036C130.559 21.5733 130.505 21.7176 130.397 21.8368C130.292 21.9523 130.155 22.01 129.985 22.01C129.816 22.01 129.678 21.9523 129.57 21.8368C129.465 21.7176 129.411 21.5733 129.411 21.4036C129.411 21.2339 129.465 21.0895 129.57 20.9776C129.675 20.8621 129.816 20.8044 129.985 20.8044C130.155 20.8044 130.296 20.8621 130.4 20.9776C130.505 21.0932 130.559 21.2339 130.559 21.4036ZM132.612 20.447C132.587 20.4398 132.555 20.4362 132.508 20.4362C132.273 20.4362 132.096 20.5445 131.977 20.7611V20.4542H131.558V22.3818H131.988V21.4036C131.988 21.0679 132.161 20.8766 132.49 20.8766C132.536 20.8766 132.576 20.8802 132.612 20.8874V20.447ZM134.041 21.0751C134.041 21.1834 133.98 21.2375 133.861 21.2375H133.622C133.283 21.2375 132.821 21.3783 132.821 21.8259V21.8476C132.821 22.0136 132.882 22.1508 133.005 22.2555C133.128 22.3602 133.283 22.4143 133.471 22.4143C133.731 22.4143 133.918 22.3169 134.037 22.1183V22.3818H134.46V21.1545C134.46 21.021 134.438 20.9054 134.395 20.808C134.276 20.5445 134.034 20.4145 133.673 20.4145C133.279 20.4145 133.005 20.577 132.853 20.9054L133.182 21.0932C133.279 20.8874 133.442 20.7863 133.662 20.7863C133.904 20.7863 134.041 20.9163 134.041 21.0751ZM134.037 21.6021C134.037 21.8909 133.85 22.0714 133.557 22.0714C133.373 22.0714 133.251 21.9667 133.251 21.8079C133.251 21.7249 133.29 21.6599 133.366 21.613C133.445 21.566 133.532 21.5408 133.622 21.5408H134.037V21.6021ZM136.709 22.3818V21.3061C136.709 21.0137 136.872 20.8188 137.135 20.8188C137.42 20.8188 137.547 21.0029 137.547 21.2953V22.3818H137.976V21.1906C137.976 20.7286 137.742 20.4109 137.276 20.4109C136.991 20.4109 136.803 20.512 136.605 20.7286C136.486 20.5156 136.287 20.4109 136.009 20.4109C135.778 20.4109 135.587 20.512 135.435 20.7141V20.4542H135.016V22.3818H135.446V21.3097C135.446 21.0173 135.608 20.8188 135.868 20.8188C136.153 20.8188 136.283 21.0101 136.283 21.2989V22.3818H136.709Z" fill="#D2D6DC"/>
<g clip-path="url(#clip1_146_9894)">
<path d="M32.4936 36.7152C32.7175 36.939 33.064 36.939 33.2878 36.7152C33.5116 36.4914 33.5116 36.1449 33.2878 35.9211C33.064 35.6901 32.7175 35.6901 32.4936 35.9211C32.2698 36.1449 32.2698 36.4914 32.4936 36.7152ZM33.3239 37.5671H32.4648V41.4224H33.3239V37.5671ZM37.9323 41.4224V39.0471C37.9323 38.123 37.4341 37.4877 36.4883 37.4877C35.9974 37.4877 35.6076 37.6899 35.3116 38.0869V37.5671H34.4741V41.4224H35.3332V39.2782C35.3332 38.6934 35.6798 38.3035 36.2212 38.3035C36.7916 38.3035 37.0731 38.6862 37.0731 39.2637V41.4224H37.9323ZM40.2917 41.4873C40.7248 41.4873 41.0786 41.379 41.3457 41.1552C41.6128 40.9314 41.75 40.6427 41.75 40.2889C41.75 39.6897 41.288 39.2709 40.4144 39.076C39.9163 38.9677 39.6997 38.8378 39.6997 38.5851C39.6997 38.3757 39.974 38.2097 40.2411 38.2097C40.6093 38.2097 40.8765 38.3829 41.0497 38.7295L41.7139 38.3541C41.4468 37.7765 40.9631 37.4877 40.27 37.4877C39.8946 37.4877 39.5697 37.596 39.2882 37.8198C39.0066 38.0436 38.8694 38.3252 38.8694 38.6717C38.8694 38.9461 38.9633 39.1771 39.1438 39.372C39.3531 39.5958 39.678 39.7474 40.104 39.8341C40.631 39.9424 40.8981 40.1156 40.8981 40.3394C40.8981 40.5993 40.6166 40.7654 40.2917 40.7654C39.8802 40.7654 39.5769 40.556 39.3676 40.1445L38.6962 40.5199C38.9922 41.1625 39.5264 41.4873 40.2917 41.4873ZM44.711 38.3396V37.5671H43.7653V36.3759H42.9062V37.5671H42.1986V38.3396H42.9062V40.1806C42.9062 41.0181 43.3971 41.4657 44.2418 41.4657C44.4078 41.4657 44.5666 41.4368 44.7038 41.3863V40.6571C44.61 40.6788 44.5161 40.686 44.4295 40.686C43.9891 40.686 43.7653 40.5055 43.7653 40.0434V38.3396H44.711ZM47.8155 38.8089C47.8155 39.0255 47.6928 39.1338 47.4546 39.1338H46.9781C46.2994 39.1338 45.3753 39.4153 45.3753 40.3106V40.3539C45.3753 40.686 45.4981 40.9603 45.7435 41.1697C45.989 41.379 46.2994 41.4873 46.6749 41.4873C47.1947 41.4873 47.5701 41.2924 47.8083 40.8953V41.4224H48.653V38.9677C48.653 38.7006 48.6097 38.4696 48.5231 38.2747C48.2848 37.7476 47.8011 37.4877 47.0791 37.4877C46.2922 37.4877 45.7435 37.8126 45.4403 38.4696L46.0973 38.845C46.2922 38.4335 46.6171 38.2313 47.0575 38.2313C47.5412 38.2313 47.8155 38.4912 47.8155 38.8089ZM47.8083 39.8629C47.8083 40.4405 47.4329 40.8015 46.8481 40.8015C46.4799 40.8015 46.2345 40.5921 46.2345 40.2745C46.2345 40.1084 46.3139 39.9785 46.4655 39.8846C46.6243 39.7908 46.7976 39.7402 46.9781 39.7402H47.8083V39.8629ZM51.3762 41.4512C51.5783 41.4512 51.8021 41.4007 52.0548 41.2924C52.3075 41.1841 52.5024 41.0253 52.6396 40.8015V41.4079C52.6396 42.1804 52.1414 42.5847 51.47 42.5847C50.9286 42.5847 50.5243 42.3104 50.2571 41.7689L49.5424 42.1804C49.8962 42.9601 50.5459 43.35 51.4845 43.35C52.0909 43.35 52.5746 43.1695 52.9428 42.8157C53.311 42.462 53.4987 41.9783 53.4987 41.3718V37.5671H52.6612V38.1519C52.5241 37.9353 52.3291 37.7765 52.0837 37.6682C51.8382 37.5599 51.6144 37.5022 51.405 37.5022C50.8347 37.5022 50.3727 37.7043 50.0189 38.1086C49.6724 38.5129 49.4991 38.9677 49.4991 39.4803C49.4991 40.0146 49.6724 40.4766 50.0261 40.8665C50.3799 41.2563 50.8347 41.4512 51.3762 41.4512ZM52.654 39.4659C52.654 39.8052 52.5457 40.094 52.3291 40.3322C52.1198 40.5632 51.8454 40.6788 51.5061 40.6788C51.1668 40.6788 50.8925 40.5632 50.6759 40.3322C50.4665 40.094 50.3582 39.8052 50.3582 39.4659C50.3582 39.1266 50.4665 38.8378 50.6759 38.614C50.8852 38.3829 51.1668 38.2674 51.5061 38.2674C51.8454 38.2674 52.127 38.3829 52.3364 38.614C52.5457 38.845 52.654 39.1266 52.654 39.4659ZM56.7602 37.5527C56.7096 37.5383 56.6447 37.531 56.5508 37.531C56.0815 37.531 55.7278 37.7476 55.4895 38.1808V37.5671H54.6521V41.4224H55.5112V39.4659C55.5112 38.7945 55.8577 38.4118 56.5147 38.4118C56.6086 38.4118 56.688 38.419 56.7602 38.4335V37.5527ZM59.6178 38.8089C59.6178 39.0255 59.495 39.1338 59.2568 39.1338H58.7803C58.1017 39.1338 57.1776 39.4153 57.1776 40.3106V40.3539C57.1776 40.686 57.3003 40.9603 57.5458 41.1697C57.7912 41.379 58.1017 41.4873 58.4771 41.4873C58.9969 41.4873 59.3723 41.2924 59.6105 40.8953V41.4224H60.4552V38.9677C60.4552 38.7006 60.4119 38.4696 60.3253 38.2747C60.087 37.7476 59.6033 37.4877 58.8814 37.4877C58.0944 37.4877 57.5458 37.8126 57.2425 38.4696L57.8995 38.845C58.0944 38.4335 58.4193 38.2313 58.8597 38.2313C59.3434 38.2313 59.6178 38.4912 59.6178 38.8089ZM59.6105 39.8629C59.6105 40.4405 59.2351 40.8015 58.6503 40.8015C58.2821 40.8015 58.0367 40.5921 58.0367 40.2745C58.0367 40.1084 58.1161 39.9785 58.2677 39.8846C58.4265 39.7908 58.5998 39.7402 58.7803 39.7402H59.6105V39.8629ZM64.9544 41.4224V39.2709C64.9544 38.6862 65.2793 38.2963 65.8063 38.2963C66.3766 38.2963 66.6293 38.6645 66.6293 39.2493V41.4224H67.4884V39.0399C67.4884 38.1158 67.0192 37.4805 66.0878 37.4805C65.5175 37.4805 65.1421 37.6827 64.745 38.1158C64.5068 37.6899 64.1097 37.4805 63.5538 37.4805C63.0917 37.4805 62.7091 37.6827 62.4059 38.0869V37.5671H61.5684V41.4224H62.4276V39.2782C62.4276 38.6934 62.7524 38.2963 63.2722 38.2963C63.8426 38.2963 64.1025 38.6789 64.1025 39.2565V41.4224H64.9544Z" fill="#2FDF84"/>
<rect x="112.205" y="38.2192" width="49.935" height="2.4065" rx="1.20325" fill="#D2D6DC"/>
<circle cx="209.367" cy="39.4223" r="3.91057" fill="#D2D6DC"/>
<circle cx="222.001" cy="39.4223" r="3.91057" fill="#D2D6DC"/>
<rect x="21.2085" y="29.9102" width="215.382" height="19.0244" stroke="#D2D6DC" stroke-width="0.601626"/>
<rect x="60.916" y="58.1866" width="32.4878" height="38.5041" rx="3.30894" fill="#F4FBF7" stroke="#D2D6DC" stroke-width="0.601626"/>
<rect x="98.2168" y="58.1866" width="32.4878" height="38.5041" rx="3.30894" fill="#F4FBF7" stroke="#D2D6DC" stroke-width="0.601626"/>
<rect x="135.518" y="58.1866" width="32.4878" height="38.5041" rx="3.30894" fill="#F4FBF7" stroke="#D2D6DC" stroke-width="0.601626"/>
<rect x="172.818" y="58.1866" width="32.4878" height="38.5041" rx="3.30894" fill="#F4FBF7" stroke="#D2D6DC" stroke-width="0.601626"/>
<rect x="210.119" y="58.1866" width="32.4878" height="38.5041" rx="3.30894" fill="#F4FBF7" stroke="#D2D6DC" stroke-width="0.601626"/>
<g filter="url(#filter1_d_146_9894)">
<g clip-path="url(#clip2_146_9894)">
<rect x="60.6152" y="107.219" width="121.528" height="92.0488" rx="2.4065" fill="#F4FBF7"/>
<rect width="121.528" height="15.6423" transform="translate(60.6152 107.219)" fill="white"/>
<circle cx="71.1435" cy="114.74" r="4.5122" fill="#D2D6DC"/>
<rect x="79.8672" y="112.634" width="39.1057" height="1.80488" rx="0.902439" fill="#D2D6DC"/>
<rect x="79.8672" y="116.244" width="22.2602" height="1.20325" rx="0.601626" fill="#D2D6DC"/>
<rect width="121.528" height="11.4309" transform="translate(60.6152 187.837)" fill="white"/>
<path d="M76.8783 194.348V195.335H77.4173V194.348H78.4232V193.824H77.4173V192.852H76.8783V193.824H75.8723V194.348H76.8783ZM81.4897 194.786C81.4897 194.363 81.2731 194.069 80.8399 193.901V193.896C81.2202 193.713 81.4079 193.424 81.4079 193.034C81.4079 192.75 81.2924 192.515 81.0661 192.317C80.8399 192.12 80.5319 192.024 80.1469 192.024C79.5067 192.024 79.0591 192.37 78.8859 192.871L79.4008 193.107C79.5549 192.746 79.8003 192.563 80.1372 192.563C80.5608 192.563 80.8062 192.789 80.8062 193.097C80.8062 193.251 80.7437 193.386 80.6137 193.496C80.4886 193.607 80.3298 193.66 80.1372 193.66H79.7666V194.194H80.1709C80.3779 194.194 80.5463 194.252 80.6763 194.368C80.8111 194.478 80.8784 194.618 80.8784 194.777C80.8784 194.931 80.8111 195.066 80.6715 195.181C80.5319 195.292 80.3634 195.349 80.1613 195.349C79.7811 195.349 79.5067 195.162 79.3431 194.791L78.8329 195.041C79.0591 195.605 79.4971 195.889 80.1517 195.889C80.5415 195.889 80.8592 195.783 81.1095 195.571C81.3646 195.354 81.4897 195.094 81.4897 194.786ZM82.0117 193.959C82.0117 194.512 82.1561 194.969 82.4497 195.34C82.7433 195.706 83.1235 195.889 83.5904 195.889C84.0572 195.889 84.4423 195.706 84.7359 195.335C85.0295 194.964 85.1787 194.502 85.1787 193.949C85.1787 193.4 85.0343 192.943 84.7407 192.577C84.4471 192.207 84.0669 192.024 83.6 192.024C83.1331 192.024 82.7529 192.211 82.4545 192.582C82.1609 192.953 82.0117 193.41 82.0117 193.959ZM84.5674 193.959C84.5674 194.348 84.4808 194.68 84.3027 194.945C84.1246 195.21 83.8936 195.345 83.6 195.345C83.3064 195.345 83.0706 195.21 82.8925 194.94C82.7144 194.671 82.6278 194.339 82.6278 193.949C82.6278 193.559 82.7144 193.232 82.8877 192.967C83.0658 192.702 83.2968 192.568 83.5904 192.568C83.884 192.568 84.1198 192.702 84.2979 192.972C84.476 193.241 84.5674 193.569 84.5674 193.959ZM85.6873 193.959C85.6873 194.512 85.8317 194.969 86.1253 195.34C86.4189 195.706 86.7991 195.889 87.2659 195.889C87.7328 195.889 88.1178 195.706 88.4114 195.335C88.705 194.964 88.8542 194.502 88.8542 193.949C88.8542 193.4 88.7098 192.943 88.4162 192.577C88.1227 192.207 87.7424 192.024 87.2756 192.024C86.8087 192.024 86.4285 192.211 86.1301 192.582C85.8365 192.953 85.6873 193.41 85.6873 193.959ZM88.243 193.959C88.243 194.348 88.1563 194.68 87.9783 194.945C87.8002 195.21 87.5692 195.345 87.2756 195.345C86.982 195.345 86.7461 195.21 86.5681 194.94C86.39 194.671 86.3033 194.339 86.3033 193.949C86.3033 193.559 86.39 193.232 86.5632 192.967C86.7413 192.702 86.9723 192.568 87.2659 192.568C87.5595 192.568 87.7954 192.702 87.9735 192.972C88.1515 193.241 88.243 193.569 88.243 193.959ZM89.3628 193.959C89.3628 194.512 89.5072 194.969 89.8008 195.34C90.0944 195.706 90.4746 195.889 90.9415 195.889C91.4084 195.889 91.7934 195.706 92.087 195.335C92.3806 194.964 92.5298 194.502 92.5298 193.949C92.5298 193.4 92.3854 192.943 92.0918 192.577C91.7982 192.207 91.418 192.024 90.9511 192.024C90.4843 192.024 90.104 192.211 89.8056 192.582C89.512 192.953 89.3628 193.41 89.3628 193.959ZM91.9185 193.959C91.9185 194.348 91.8319 194.68 91.6538 194.945C91.4757 195.21 91.2447 195.345 90.9511 195.345C90.6575 195.345 90.4217 195.21 90.2436 194.94C90.0655 194.671 89.9789 194.339 89.9789 193.949C89.9789 193.559 90.0655 193.232 90.2388 192.967C90.4169 192.702 90.6479 192.568 90.9415 192.568C91.2351 192.568 91.4709 192.702 91.649 192.972C91.8271 193.241 91.9185 193.569 91.9185 193.959Z" fill="#00B871"/>
<g clip-path="url(#clip3_146_9894)">
<path d="M73.3094 193.468C73.2531 193.4 73.1826 193.346 73.1029 193.309C73.0232 193.271 72.9362 193.252 72.8482 193.251H71.9337L72.046 192.965C72.0927 192.839 72.1083 192.704 72.0913 192.571C72.0744 192.438 72.0255 192.312 71.9488 192.202C71.8721 192.092 71.7699 192.002 71.6509 191.941C71.532 191.879 71.3999 191.847 71.2659 191.848C71.2273 191.848 71.1896 191.859 71.1572 191.88C71.1249 191.901 71.0992 191.931 71.0834 191.966L70.5119 193.251H70.0406C69.881 193.251 69.728 193.315 69.6152 193.428C69.5024 193.54 69.439 193.694 69.439 193.853V195.257C69.439 195.416 69.5024 195.569 69.6152 195.682C69.728 195.795 69.881 195.859 70.0406 195.859H72.5935C72.7342 195.858 72.8705 195.809 72.9786 195.719C73.0867 195.629 73.1598 195.504 73.1851 195.365L73.4398 193.961C73.4555 193.875 73.452 193.785 73.4295 193.7C73.407 193.615 73.366 193.536 73.3094 193.468ZM70.4417 195.457H70.0406C69.9874 195.457 69.9364 195.436 69.8988 195.399C69.8612 195.361 69.84 195.31 69.84 195.257V193.853C69.84 193.8 69.8612 193.749 69.8988 193.711C69.9364 193.674 69.9874 193.653 70.0406 193.653H70.4417V195.457ZM73.0487 193.889L72.794 195.293C72.7855 195.34 72.7606 195.382 72.7239 195.412C72.6872 195.442 72.641 195.458 72.5935 195.457H70.8428V193.494L71.3882 192.267C71.4444 192.283 71.4965 192.311 71.5414 192.349C71.5862 192.386 71.6228 192.432 71.6488 192.485C71.6748 192.537 71.6897 192.594 71.6925 192.653C71.6952 192.711 71.6859 192.77 71.665 192.824L71.5587 193.111C71.536 193.172 71.5284 193.237 71.5364 193.301C71.5444 193.365 71.5678 193.427 71.6047 193.48C71.6415 193.533 71.6907 193.577 71.748 193.607C71.8053 193.637 71.869 193.652 71.9337 193.653H72.8482C72.8776 193.652 72.9068 193.659 72.9334 193.671C72.9601 193.684 72.9837 193.702 73.0026 193.725C73.0219 193.747 73.0361 193.773 73.044 193.802C73.052 193.83 73.0536 193.86 73.0487 193.889Z" fill="#00B871"/>
</g>
<g clip-path="url(#clip4_146_9894)">
<g filter="url(#filter2_d_146_9894)">
<path d="M141.101 174.63C141.101 169.76 141.103 166.159 141.474 163.396C141.843 160.648 142.571 158.806 143.968 157.41C145.365 156.013 147.206 155.285 149.954 154.916C152.717 154.544 156.318 154.543 161.188 154.543H162.218C167.089 154.543 170.69 154.544 173.452 154.916C176.2 155.285 178.042 156.013 179.439 157.41C180.835 158.806 181.563 160.648 181.932 163.396C182.304 166.159 182.305 169.76 182.305 174.63V194.717H141.101V174.63Z" fill="#F4FBF7" stroke="#2FDF84" stroke-width="1.03008"/>
<circle cx="161.188" cy="214.803" r="34.5078" fill="white" stroke="#2FDF84" stroke-width="1.03008"/>
<circle cx="161.704" cy="215.318" r="28.8423" fill="#F4FBF7" stroke="#2FDF84" stroke-width="1.03008"/>
</g>
</g>
</g>
<rect x="60.916" y="107.52" width="120.927" height="91.4472" rx="2.10569" stroke="#D2D6DC" stroke-width="0.601626"/>
</g>
<g clip-path="url(#clip5_146_9894)">
<rect x="60.6152" y="208.894" width="121.528" height="92.0488" rx="2.4065" fill="#F4FBF7"/>
<rect width="121.528" height="15.6423" transform="translate(60.6152 208.894)" fill="white"/>
<circle cx="71.1435" cy="216.415" r="4.5122" fill="#D2D6DC"/>
<rect x="79.8672" y="214.309" width="39.1057" height="1.80488" rx="0.902439" fill="#D2D6DC"/>
<rect x="79.8672" y="217.918" width="22.2602" height="1.20325" rx="0.601626" fill="#D2D6DC"/>
</g>
<rect x="60.916" y="209.195" width="120.927" height="91.4472" rx="2.10569" stroke="#D2D6DC" stroke-width="0.601626"/>
</g>
</g>
<rect x="21.2085" y="14.8697" width="215.382" height="221.398" rx="4.5122" stroke="#D2D6DC" stroke-width="0.601626"/>
</g>
<defs>
<filter id="filter0_d_146_9894" x="0.907715" y="0.568848" width="255.984" height="262" filterUnits="userSpaceOnUse" color-interpolation-filters="sRGB">
<feFlood flood-opacity="0" result="BackgroundImageFix"/>
<feColorMatrix in="SourceAlpha" type="matrix" values="0 0 0 0 0 0 0 0 0 0 0 0 0 0 0 0 0 0 127 0" result="hardAlpha"/>
<feMorphology radius="4" operator="dilate" in="SourceAlpha" result="effect1_dropShadow_146_9894"/>
<feOffset dy="6"/>
<feGaussianBlur stdDeviation="8"/>
<feComposite in2="hardAlpha" operator="out"/>
<feColorMatrix type="matrix" values="0 0 0 0 0.184314 0 0 0 0 0.87451 0 0 0 0 0.517647 0 0 0 0.15 0"/>
<feBlend mode="normal" in2="BackgroundImageFix" result="effect1_dropShadow_146_9894"/>
<feBlend mode="normal" in="SourceGraphic" in2="effect1_dropShadow_146_9894" result="shape"/>
</filter>
<filter id="filter1_d_146_9894" x="40.6152" y="93.2192" width="161.528" height="132.049" filterUnits="userSpaceOnUse" color-interpolation-filters="sRGB">
<feFlood flood-opacity="0" result="BackgroundImageFix"/>
<feColorMatrix in="SourceAlpha" type="matrix" values="0 0 0 0 0 0 0 0 0 0 0 0 0 0 0 0 0 0 127 0" result="hardAlpha"/>
<feMorphology radius="4" operator="dilate" in="SourceAlpha" result="effect1_dropShadow_146_9894"/>
<feOffset dy="6"/>
<feGaussianBlur stdDeviation="8"/>
<feComposite in2="hardAlpha" operator="out"/>
<feColorMatrix type="matrix" values="0 0 0 0 0.184314 0 0 0 0 0.87451 0 0 0 0 0.517647 0 0 0 0.15 0"/>
<feBlend mode="normal" in2="BackgroundImageFix" result="effect1_dropShadow_146_9894"/>
<feBlend mode="normal" in="SourceGraphic" in2="effect1_dropShadow_146_9894" result="shape"/>
</filter>
<filter id="filter2_d_146_9894" x="105.916" y="138.841" width="112.605" height="156.898" filterUnits="userSpaceOnUse" color-interpolation-filters="sRGB">
<feFlood flood-opacity="0" result="BackgroundImageFix"/>
<feColorMatrix in="SourceAlpha" type="matrix" values="0 0 0 0 0 0 0 0 0 0 0 0 0 0 0 0 0 0 127 0" result="hardAlpha"/>
<feOffset dy="5.06242"/>
<feGaussianBlur stdDeviation="10.1248"/>
<feComposite in2="hardAlpha" operator="out"/>
<feColorMatrix type="matrix" values="0 0 0 0 0 0 0 0 0 0.721569 0 0 0 0 0.443137 0 0 0 0.15 0"/>
<feBlend mode="normal" in2="BackgroundImageFix" result="effect1_dropShadow_146_9894"/>
<feBlend mode="normal" in="SourceGraphic" in2="effect1_dropShadow_146_9894" result="shape"/>
</filter>
<clipPath id="clip0_146_9894">
<rect x="20.9077" y="14.5688" width="215.984" height="222" rx="4.81301" fill="white"/>
</clipPath>
<clipPath id="clip1_146_9894">
<rect width="215.984" height="206.959" fill="white" transform="translate(20.9077 29.6094)"/>
</clipPath>
<clipPath id="clip2_146_9894">
<rect x="60.6152" y="107.219" width="121.528" height="92.0488" rx="2.4065" fill="white"/>
</clipPath>
<clipPath id="clip3_146_9894">
<rect width="4.81301" height="4.81301" fill="white" transform="translate(69.0376 191.447)"/>
</clipPath>
<clipPath id="clip4_146_9894">
<rect width="114.339" height="167.903" fill="white" transform="translate(104.534 128.276)"/>
</clipPath>
<clipPath id="clip5_146_9894">
<rect x="60.6152" y="208.894" width="121.528" height="92.0488" rx="2.4065" fill="white"/>
</clipPath>
</defs>
</svg>
