<svg width="314" height="222" viewBox="0 0 314 222" fill="none" xmlns="http://www.w3.org/2000/svg">
<g filter="url(#filter0_d_144_8807)">
<rect x="20.9634" y="14" width="271.037" height="181.308" rx="18" fill="white" shape-rendering="crispEdges"/>
<path d="M43.4971 45.6868H47.6265V56.8261H49.6745V45.6868H53.8205V43.7886H43.4971V45.6868ZM57.8769 47.7515C56.5782 47.7515 55.4626 48.201 54.5468 49.0835C53.631 49.966 53.1648 51.065 53.1648 52.3637C53.1648 53.6625 53.6143 54.7614 54.5301 55.6439C55.4459 56.5264 56.5615 56.976 57.8603 56.976C59.1757 56.976 60.2746 56.5264 61.1738 55.6439C62.0896 54.7448 62.5391 53.6458 62.5391 52.3304C62.5391 51.0317 62.0896 49.9494 61.1738 49.0669C60.258 48.1844 59.159 47.7515 57.8769 47.7515ZM55.9288 50.3656C56.4283 49.8162 57.0777 49.5497 57.8603 49.5497C58.6429 49.5497 59.2922 49.8162 59.7751 50.3656C60.2746 50.9151 60.5244 51.5811 60.5244 52.3637C60.5244 53.1463 60.2746 53.8123 59.7918 54.3618C59.3089 54.9113 58.6595 55.1777 57.8769 55.1777C57.0943 55.1777 56.445 54.8946 55.9454 54.3452C55.4459 53.779 55.1962 53.113 55.1962 52.3304C55.1962 51.5478 55.4459 50.8985 55.9288 50.3656ZM69.3093 49.7163V47.9346H67.1281V45.1873H65.1467V47.9346H63.5149V49.7163H65.1467V53.9622C65.1467 55.8937 66.2789 56.926 68.227 56.926C68.61 56.926 68.9763 56.8594 69.2927 56.7429V55.0611C69.0762 55.1111 68.8598 55.1277 68.66 55.1277C67.6443 55.1277 67.1281 54.7115 67.1281 53.6458V49.7163H69.3093ZM76.4694 50.7986C76.4694 51.2981 76.1863 51.5478 75.6369 51.5478H74.5379C72.9728 51.5478 70.8415 52.1972 70.8415 54.2619V54.3618C70.8415 55.1277 71.1245 55.7605 71.6906 56.2433C72.2568 56.7262 72.9728 56.976 73.8386 56.976C75.0374 56.976 75.9033 56.5264 76.4528 55.6106V56.8261H78.4009V51.1649C78.4009 50.5488 78.301 50.016 78.1012 49.5664C77.5517 48.3509 76.4361 47.7515 74.771 47.7515C72.9561 47.7515 71.6906 48.5008 70.9913 50.016L72.5065 50.8818C72.9561 49.9327 73.7054 49.4665 74.7211 49.4665C75.8367 49.4665 76.4694 50.0659 76.4694 50.7986ZM76.4528 53.2296C76.4528 54.5616 75.5869 55.3941 74.2382 55.3941C73.389 55.3941 72.8229 54.9113 72.8229 54.1786C72.8229 53.7957 73.0061 53.496 73.3557 53.2795C73.722 53.063 74.1217 52.9465 74.5379 52.9465H76.4528V53.2296ZM80.9683 56.8261H82.9498V43.2724H80.9683V56.8261ZM99.5005 47.8347C99.5005 46.7191 99.1175 45.7534 98.3516 44.9708C97.6023 44.1882 96.4534 43.7886 94.9382 43.7886H90.3259V56.8261H92.374V51.9974H94.6884C96.2036 51.9974 97.3692 51.5978 98.2184 50.8152C99.0675 50.016 99.5005 49.0169 99.5005 47.8347ZM94.755 45.6868C95.7208 45.6868 96.4034 45.9032 96.8031 46.3362C97.2193 46.7691 97.4191 47.2852 97.4191 47.8847C97.4191 49.0835 96.5699 50.1159 94.755 50.1159H92.374V45.6868H94.755ZM106.221 47.9013C106.104 47.868 105.955 47.8514 105.738 47.8514C104.656 47.8514 103.84 48.3509 103.29 49.3499V47.9346H101.359V56.8261H103.34V52.3138C103.34 50.7652 104.14 49.8828 105.655 49.8828C105.871 49.8828 106.054 49.8994 106.221 49.9327V47.9013ZM111.797 47.7515C110.498 47.7515 109.382 48.201 108.466 49.0835C107.551 49.966 107.084 51.065 107.084 52.3637C107.084 53.6625 107.534 54.7614 108.45 55.6439C109.366 56.5264 110.481 56.976 111.78 56.976C113.095 56.976 114.194 56.5264 115.093 55.6439C116.009 54.7448 116.459 53.6458 116.459 52.3304C116.459 51.0317 116.009 49.9494 115.093 49.0669C114.178 48.1844 113.079 47.7515 111.797 47.7515ZM109.849 50.3656C110.348 49.8162 110.997 49.5497 111.78 49.5497C112.563 49.5497 113.212 49.8162 113.695 50.3656C114.194 50.9151 114.444 51.5811 114.444 52.3637C114.444 53.1463 114.194 53.8123 113.711 54.3618C113.229 54.9113 112.579 55.1777 111.797 55.1777C111.014 55.1777 110.365 54.8946 109.865 54.3452C109.366 53.779 109.116 53.113 109.116 52.3304C109.116 51.5478 109.366 50.8985 109.849 50.3656ZM117.914 52.3637C117.914 53.5959 118.33 54.6782 119.163 55.594C119.995 56.5097 121.044 56.9593 122.293 56.9593C122.759 56.9593 123.292 56.8428 123.892 56.593C124.508 56.3432 124.957 55.9603 125.274 55.4441V56.8261H127.205V43.2724H125.224V49.2001C124.924 48.7172 124.491 48.3675 123.908 48.1344C123.342 47.8847 122.826 47.7681 122.343 47.7681C121.028 47.7681 119.945 48.2343 119.129 49.1668C118.314 50.0992 117.914 51.1649 117.914 52.3637ZM122.593 49.5497C123.375 49.5497 124.008 49.8162 124.508 50.3656C125.007 50.9151 125.257 51.5811 125.257 52.3637C125.257 53.1463 125.007 53.8123 124.508 54.3618C124.025 54.8946 123.375 55.161 122.593 55.161C121.81 55.161 121.161 54.8946 120.661 54.3618C120.178 53.8123 119.929 53.1463 119.929 52.3637C119.929 51.5811 120.178 50.9151 120.661 50.3656C121.161 49.8162 121.81 49.5497 122.593 49.5497ZM129.764 47.9346V53.3961C129.764 55.5274 130.946 57.0093 133.094 57.0093C134.226 57.0093 135.125 56.543 135.808 55.6273V56.8261H137.739V47.9346H135.758V52.8799C135.758 54.2286 134.959 55.1277 133.71 55.1277C132.394 55.1277 131.745 54.2452 131.745 52.9132V47.9346H129.764ZM144.43 56.976C145.512 56.976 146.395 56.7096 147.077 56.1767C147.76 55.6439 148.243 55.0112 148.493 54.2952L146.761 53.5293C146.345 54.6282 145.579 55.1777 144.463 55.1777C143.714 55.1777 143.081 54.9113 142.582 54.3785C142.082 53.8456 141.832 53.163 141.832 52.3304C141.832 51.5145 142.082 50.8485 142.582 50.3323C143.098 49.8162 143.714 49.5497 144.446 49.5497C145.579 49.5497 146.345 50.0992 146.728 51.1815L148.426 50.4156C147.893 48.8338 146.428 47.7515 144.43 47.7515C143.114 47.7515 142.015 48.201 141.133 49.1168C140.25 50.0326 139.801 51.1149 139.801 52.3637C139.801 53.6791 140.25 54.7781 141.133 55.6606C142.015 56.543 143.114 56.976 144.43 56.976ZM155.246 49.7163V47.9346H153.065V45.1873H151.083V47.9346H149.451V49.7163H151.083V53.9622C151.083 55.8937 152.215 56.926 154.164 56.926C154.547 56.926 154.913 56.8594 155.229 56.7429V55.0611C155.013 55.1111 154.796 55.1277 154.597 55.1277C153.581 55.1277 153.065 54.7115 153.065 53.6458V49.7163H155.246Z" fill="#161E2E"/>
<rect x="243.898" y="39.9011" width="25.9011" height="25.9011" rx="3.70016" fill="#F4FBF7"/>
<path d="M256.849 51.9266C256.666 51.9266 256.487 51.9808 256.335 52.0825C256.183 52.1841 256.064 52.3286 255.994 52.4976C255.924 52.6666 255.906 52.8526 255.941 53.0321C255.977 53.2115 256.065 53.3763 256.195 53.5057C256.324 53.6351 256.489 53.7232 256.668 53.7589C256.848 53.7946 257.034 53.7763 257.203 53.7062C257.372 53.6362 257.516 53.5177 257.618 53.3655C257.72 53.2134 257.774 53.0346 257.774 52.8516C257.774 52.6063 257.676 52.371 257.503 52.1975C257.329 52.024 257.094 51.9266 256.849 51.9266ZM253.611 51.9266C253.428 51.9266 253.249 51.9808 253.097 52.0825C252.945 52.1841 252.826 52.3286 252.756 52.4976C252.686 52.6666 252.668 52.8526 252.704 53.0321C252.74 53.2115 252.828 53.3763 252.957 53.5057C253.086 53.6351 253.251 53.7232 253.431 53.7589C253.61 53.7946 253.796 53.7763 253.965 53.7062C254.134 53.6362 254.279 53.5177 254.38 53.3655C254.482 53.2134 254.536 53.0346 254.536 52.8516C254.536 52.6063 254.439 52.371 254.265 52.1975C254.092 52.024 253.856 51.9266 253.611 51.9266ZM260.086 51.9266C259.903 51.9266 259.725 51.9808 259.572 52.0825C259.42 52.1841 259.302 52.3286 259.232 52.4976C259.162 52.6666 259.143 52.8526 259.179 53.0321C259.215 53.2115 259.303 53.3763 259.432 53.5057C259.562 53.6351 259.726 53.7232 259.906 53.7589C260.085 53.7946 260.271 53.7763 260.44 53.7062C260.609 53.6362 260.754 53.5177 260.855 53.3655C260.957 53.2134 261.011 53.0346 261.011 52.8516C261.011 52.6063 260.914 52.371 260.74 52.1975C260.567 52.024 260.332 51.9266 260.086 51.9266Z" fill="#00B871"/>
<path d="M43.32 104.142L44.5854 106.229L48.4928 103.876V118.328H51.2235V100.945H48.626L43.32 104.142ZM56.1724 121.925C57.7931 120.771 58.8587 118.972 58.8587 117.196V117.085C58.8587 115.598 57.9485 114.554 56.794 114.554C55.6174 114.554 54.7959 115.398 54.7959 116.486C54.7959 117.529 55.5952 118.306 56.5054 118.306C56.7496 118.306 56.9716 118.262 57.1714 118.173C56.7052 119.261 55.9726 120.171 54.9736 120.859L56.1724 121.925ZM58.8866 104.142L60.1521 106.229L64.0595 103.876V118.328H66.7902V100.945H64.1927L58.8866 104.142ZM82.1291 113.444C82.1291 111.491 81.1301 110.136 79.132 109.359V109.337C80.8859 108.493 81.7517 107.161 81.7517 105.363C81.7517 104.053 81.2189 102.965 80.1755 102.055C79.132 101.145 77.7112 100.701 75.9351 100.701C72.9823 100.701 70.9177 102.299 70.1184 104.608L72.4939 105.696C73.2044 104.031 74.3366 103.187 75.8907 103.187C77.8444 103.187 78.9766 104.231 78.9766 105.652C78.9766 106.362 78.688 106.984 78.0886 107.494C77.5113 108.005 76.7787 108.249 75.8907 108.249H74.1812V110.714H76.0461C77.0007 110.714 77.7778 110.98 78.3772 111.513C78.9988 112.023 79.3096 112.667 79.3096 113.4C79.3096 114.11 78.9988 114.732 78.355 115.265C77.7112 115.775 76.9341 116.042 76.0017 116.042C74.2478 116.042 72.9823 115.176 72.2275 113.466L69.8742 114.621C70.9177 117.218 72.9379 118.528 75.9573 118.528C77.7556 118.528 79.2208 118.04 80.3753 117.063C81.5519 116.064 82.1291 114.865 82.1291 113.444ZM92.3296 100.945L84.0487 111.735V114.488H92.9956V118.328H95.682V114.488H98.2573V112.023H95.682V100.945H92.3296ZM92.9956 104.031V112.023H86.846L92.9956 104.031Z" fill="#161E2E"/>
<path d="M104.983 109.456C104.983 109.811 105.271 110.1 105.627 110.1C105.993 110.1 106.281 109.811 106.281 109.456C106.281 109.09 105.993 108.801 105.627 108.801C105.271 108.801 104.983 109.09 104.983 109.456ZM106.071 111.576H105.194V117.504H106.071V111.576ZM110.099 117.548C110.354 117.548 110.587 117.515 110.776 117.46V116.738C110.654 116.771 110.476 116.782 110.243 116.782C109.599 116.782 109.277 116.505 109.277 115.95V112.342H110.776V111.576H109.277V109.867H108.423V111.576H107.324V112.342H108.423V115.972C108.423 117.027 108.978 117.548 110.099 117.548ZM117.36 114.806C117.371 114.751 117.371 114.651 117.371 114.518C117.371 113.619 117.127 112.897 116.638 112.331C116.15 111.765 115.462 111.476 114.574 111.476C113.763 111.476 113.075 111.776 112.52 112.387C111.965 112.997 111.688 113.708 111.688 114.529C111.688 115.384 111.976 116.116 112.554 116.716C113.131 117.304 113.841 117.604 114.696 117.604C115.762 117.604 116.705 117.049 117.205 116.072L116.561 115.65C116.217 116.361 115.517 116.838 114.685 116.838C114.108 116.838 113.619 116.649 113.22 116.261C112.82 115.872 112.598 115.384 112.565 114.806H117.36ZM112.576 114.074C112.653 113.563 112.875 113.13 113.253 112.775C113.63 112.409 114.074 112.231 114.574 112.231C115.684 112.231 116.372 112.964 116.494 114.074H112.576ZM123.759 117.504V114.096C123.759 113.574 123.903 113.141 124.203 112.797C124.502 112.442 124.902 112.264 125.401 112.264C126.434 112.264 126.933 112.986 126.933 114.052V117.504H127.799V113.841C127.799 112.42 127 111.476 125.612 111.476C124.735 111.476 124.036 111.865 123.525 112.653C123.159 111.865 122.526 111.465 121.627 111.465C120.784 111.465 120.218 111.843 119.718 112.609V111.576H118.863V117.504H119.729V114.129C119.729 113.619 119.873 113.175 120.173 112.808C120.473 112.442 120.872 112.253 121.372 112.253C122.393 112.253 122.904 112.997 122.904 114.029V117.504H123.759ZM133.611 115.817C133.611 115.45 133.467 115.117 133.19 114.84C132.868 114.507 132.346 114.263 131.636 114.107C130.537 113.874 130.248 113.663 130.248 113.175C130.248 112.919 130.37 112.708 130.603 112.52C130.836 112.331 131.125 112.242 131.447 112.242C132.057 112.242 132.524 112.575 132.834 113.241L133.545 112.853C133.145 111.931 132.446 111.476 131.447 111.476C130.914 111.476 130.437 111.643 130.015 111.976C129.593 112.309 129.382 112.731 129.382 113.241C129.382 113.585 129.493 113.874 129.704 114.129C130.026 114.496 130.437 114.684 131.247 114.862C132.324 115.117 132.735 115.373 132.735 115.872C132.735 116.46 132.146 116.838 131.469 116.838C130.77 116.838 130.237 116.449 129.871 115.683L129.16 116.072C129.615 117.093 130.392 117.604 131.48 117.604C132.091 117.604 132.601 117.437 133.001 117.104C133.412 116.76 133.611 116.338 133.611 115.817Z" fill="#9BA4B0"/>
<path d="M45.9841 158.454V160.729H47.2273V158.454H49.5473V157.244H47.2273V155.001H45.9841V157.244H43.6641V158.454H45.9841ZM49.8006 154.813L50.4334 155.856L52.3871 154.679V161.906H53.7524V153.214H52.4537L49.8006 154.813ZM55.4387 157.554C55.4387 158.831 55.7717 159.886 56.4489 160.74C57.126 161.584 58.0029 162.006 59.0797 162.006C60.1564 162.006 61.0445 161.584 61.7216 160.729C62.3987 159.874 62.7428 158.809 62.7428 157.532C62.7428 156.267 62.4098 155.212 61.7327 154.369C61.0556 153.514 60.1786 153.092 59.1019 153.092C58.0251 153.092 57.1482 153.525 56.46 154.38C55.7828 155.234 55.4387 156.289 55.4387 157.554ZM61.3331 157.554C61.3331 158.454 61.1333 159.22 60.7226 159.83C60.3118 160.441 59.779 160.751 59.1019 160.751C58.4248 160.751 57.8808 160.441 57.4701 159.819C57.0594 159.197 56.8596 158.431 56.8596 157.532C56.8596 156.633 57.0594 155.878 57.459 155.268C57.8697 154.657 58.4026 154.346 59.0797 154.346C59.7568 154.346 60.3007 154.657 60.7115 155.279C61.1222 155.901 61.3331 156.655 61.3331 157.554ZM67.6567 155.09C67.6567 154.546 67.468 154.08 67.0795 153.703C66.691 153.314 66.2359 153.125 65.6919 153.125C65.148 153.125 64.6929 153.314 64.3044 153.703C63.927 154.091 63.7382 154.546 63.7382 155.09C63.7382 155.634 63.927 156.089 64.3044 156.478C64.6929 156.866 65.148 157.055 65.6919 157.055C66.2359 157.055 66.691 156.866 67.0795 156.478C67.468 156.089 67.6567 155.634 67.6567 155.09ZM71.664 153.214H70.3652L64.704 161.906H66.0138L71.664 153.214ZM65.6919 154.247C66.1693 154.247 66.5467 154.635 66.5467 155.09C66.5467 155.545 66.1693 155.934 65.6919 155.934C65.2368 155.934 64.8483 155.568 64.8483 155.09C64.8483 154.613 65.2368 154.247 65.6919 154.247ZM70.676 158.043C70.1321 158.043 69.6659 158.232 69.2774 158.62C68.9 159.009 68.7113 159.464 68.7113 160.008C68.7113 160.552 68.9 161.007 69.2885 161.395C69.677 161.773 70.1321 161.961 70.676 161.961C71.22 161.961 71.6751 161.773 72.0525 161.395C72.441 161.007 72.6297 160.552 72.6297 160.008C72.6297 159.464 72.441 159.009 72.0525 158.62C71.6751 158.232 71.22 158.043 70.676 158.043ZM71.2755 160.607C70.9536 160.929 70.4096 160.929 70.0655 160.607C69.7436 160.263 69.7436 159.741 70.0655 159.419C70.4096 159.075 70.9536 159.075 71.2755 159.419C71.5974 159.741 71.5974 160.263 71.2755 160.607ZM80.0856 157.166V155.978H78.6314V154.147H77.3105V155.978H76.2226V157.166H77.3105V159.997C77.3105 161.284 78.0653 161.972 79.3641 161.972C79.6194 161.972 79.8636 161.928 80.0745 161.85V160.729C79.9302 160.763 79.7859 160.774 79.6527 160.774C78.9756 160.774 78.6314 160.496 78.6314 159.786V157.166H80.0856ZM86.7905 161.906V158.254C86.7905 156.833 86.0245 155.856 84.5704 155.856C83.8488 155.856 83.2494 156.145 82.7943 156.733V152.87H81.4733V161.906H82.7943V158.609C82.7943 157.71 83.3271 157.11 84.1597 157.11C85.0366 157.11 85.4695 157.699 85.4695 158.587V161.906H86.7905ZM88.5423 154.668C88.8864 155.012 89.4192 155.012 89.7633 154.668C90.1074 154.324 90.1074 153.791 89.7633 153.447C89.4192 153.092 88.8864 153.092 88.5423 153.447C88.1982 153.791 88.1982 154.324 88.5423 154.668ZM89.8188 155.978H88.4979V161.906H89.8188V155.978ZM93.5077 162.006C94.1738 162.006 94.7177 161.839 95.1284 161.495C95.5391 161.151 95.75 160.707 95.75 160.163C95.75 159.242 95.0396 158.598 93.6964 158.298C92.9305 158.132 92.5975 157.932 92.5975 157.543C92.5975 157.221 93.0193 156.966 93.43 156.966C93.9962 156.966 94.4069 157.233 94.6733 157.765L95.6945 157.188C95.2838 156.3 94.5401 155.856 93.4744 155.856C92.8972 155.856 92.3977 156.023 91.9648 156.367C91.5319 156.711 91.3209 157.144 91.3209 157.677C91.3209 158.098 91.4653 158.454 91.7428 158.753C92.0647 159.097 92.5642 159.331 93.2191 159.464C94.0295 159.63 94.4402 159.897 94.4402 160.241C94.4402 160.64 94.0073 160.896 93.5077 160.896C92.875 160.896 92.4088 160.574 92.0869 159.941L91.0545 160.518C91.5097 161.506 92.3311 162.006 93.5077 162.006ZM107.368 155.978L106.125 160.174H106.103L104.748 155.978H103.416L102.073 160.163H102.062L100.819 155.978H99.4312L101.329 161.906H102.684L104.06 157.743H104.082L105.448 161.906H106.824L108.722 155.978H107.368ZM115.163 159.331C115.174 159.231 115.185 159.097 115.185 158.92C115.185 157.999 114.93 157.266 114.419 156.7C113.908 156.134 113.198 155.856 112.299 155.856C111.444 155.856 110.734 156.156 110.167 156.755C109.601 157.355 109.313 158.076 109.313 158.931C109.313 159.808 109.612 160.552 110.201 161.14C110.8 161.728 111.544 162.017 112.421 162.017C113.487 162.017 114.452 161.506 114.952 160.585L113.997 159.952C113.675 160.563 113.142 160.874 112.399 160.874C111.944 160.874 111.544 160.729 111.2 160.441C110.856 160.141 110.678 159.775 110.667 159.331H115.163ZM112.299 156.988C113.142 156.988 113.797 157.499 113.842 158.332H110.734C110.856 157.521 111.488 156.988 112.299 156.988ZM121.992 159.331C122.003 159.231 122.014 159.097 122.014 158.92C122.014 157.999 121.759 157.266 121.248 156.7C120.738 156.134 120.027 155.856 119.128 155.856C118.273 155.856 117.563 156.156 116.997 156.755C116.431 157.355 116.142 158.076 116.142 158.931C116.142 159.808 116.442 160.552 117.03 161.14C117.63 161.728 118.373 162.017 119.25 162.017C120.316 162.017 121.282 161.506 121.781 160.585L120.827 159.952C120.505 160.563 119.972 160.874 119.228 160.874C118.773 160.874 118.373 160.729 118.029 160.441C117.685 160.141 117.507 159.775 117.496 159.331H121.992ZM119.128 156.988C119.972 156.988 120.627 157.499 120.671 158.332H117.563C117.685 157.521 118.318 156.988 119.128 156.988ZM123.371 161.906H124.692V159.009H124.725L127.201 161.906H128.944L126.124 158.665L128.799 155.978H127.001L124.703 158.309H124.692V152.87H123.371V161.906Z" fill="#00B871"/>
<path d="M195.322 116.5C174.764 121.068 188.057 143.883 163.469 162.883V181.432H292V85.3129C261.823 88.6654 264.617 136.909 241.146 141.089C222.238 144.456 210.411 113.147 195.322 116.5Z" fill="url(#paint0_linear_144_8807)"/>
<path d="M163.469 161.873C188.057 142.873 174.764 120.059 195.322 115.49C210.411 112.137 222.238 143.446 241.146 140.079C264.617 135.899 261.823 87.6554 292 84.303" stroke="#00B871" stroke-width="2.26688" stroke-linecap="round"/>
</g>
<defs>
<filter id="filter0_d_144_8807" x="0.963379" y="0" width="312.17" height="221.308" filterUnits="userSpaceOnUse" color-interpolation-filters="sRGB">
<feFlood flood-opacity="0" result="BackgroundImageFix"/>
<feColorMatrix in="SourceAlpha" type="matrix" values="0 0 0 0 0 0 0 0 0 0 0 0 0 0 0 0 0 0 127 0" result="hardAlpha"/>
<feMorphology radius="4" operator="dilate" in="SourceAlpha" result="effect1_dropShadow_144_8807"/>
<feOffset dy="6"/>
<feGaussianBlur stdDeviation="8"/>
<feComposite in2="hardAlpha" operator="out"/>
<feColorMatrix type="matrix" values="0 0 0 0 0.184314 0 0 0 0 0.87451 0 0 0 0 0.517647 0 0 0 0.15 0"/>
<feBlend mode="normal" in2="BackgroundImageFix" result="effect1_dropShadow_144_8807"/>
<feBlend mode="normal" in="SourceGraphic" in2="effect1_dropShadow_144_8807" result="shape"/>
</filter>
<linearGradient id="paint0_linear_144_8807" x1="226.41" y1="108.648" x2="235.157" y2="180.529" gradientUnits="userSpaceOnUse">
<stop stop-color="#CBF7E1"/>
<stop offset="1" stop-color="white" stop-opacity="0"/>
</linearGradient>
</defs>
</svg>
