<svg width="211" height="204" viewBox="0 0 211 204" fill="none" xmlns="http://www.w3.org/2000/svg">
<g filter="url(#filter0_d_144_8806)">
<rect x="20" y="14.7192" width="170.985" height="162.85" rx="18" fill="white" shape-rendering="crispEdges"/>
<path d="M38.1885 45.092H37.7203V48.8719L35.0501 45.092H34.5011V49.6174H34.9692V45.7624L37.6799 49.6174H38.1885V45.092ZM42.0576 48.213C42.0634 48.1841 42.0634 48.1321 42.0634 48.0627C42.0634 47.5946 41.9363 47.2189 41.6819 46.9241C41.4276 46.6294 41.0693 46.4791 40.6069 46.4791C40.185 46.4791 39.8267 46.6351 39.5377 46.953C39.2487 47.2709 39.1042 47.6408 39.1042 48.0685C39.1042 48.5135 39.2545 48.895 39.555 49.2071C39.8556 49.5134 40.2255 49.6694 40.6705 49.6694C41.2254 49.6694 41.7166 49.3805 41.9767 48.8719L41.6415 48.6522C41.4623 49.0221 41.0982 49.2707 40.6647 49.2707C40.3642 49.2707 40.1099 49.1724 39.9018 48.9701C39.6938 48.7678 39.5782 48.5135 39.5608 48.213H42.0576ZM39.5666 47.8315C39.6071 47.5657 39.7227 47.3403 39.9192 47.1553C40.1157 46.9646 40.3469 46.8721 40.6069 46.8721C41.1849 46.8721 41.5432 47.2536 41.6068 47.8315H39.5666ZM43.4374 49.6174H43.9344L44.7551 47.1091H44.7609L45.5758 49.6174H46.0787L47.119 46.5311H46.6509L45.8359 49.0973H45.8301L44.9863 46.5311H44.5355L43.6975 49.0915H43.6917L42.8825 46.5311H42.4028L43.4374 49.6174ZM50.3057 49.6174H50.7855V45.537H52.2939V45.092H48.7915V45.537H50.3057V49.6174ZM52.3282 46.5311V49.6174H52.779V48.1089C52.779 47.7911 52.8541 47.5252 53.0102 47.2998C53.1662 47.0744 53.409 46.9588 53.7442 46.9588C53.7846 46.9588 53.8424 46.9646 53.9176 46.9704V46.4907C53.8944 46.4849 53.8424 46.4849 53.7673 46.4849C53.3743 46.4849 52.987 46.6987 52.7732 47.1437V46.5311H52.3282ZM55.456 47.8373C55.1324 47.8373 54.8492 47.9124 54.6006 48.0569C54.3579 48.2014 54.2365 48.421 54.2365 48.7274V48.762C54.2365 49.0221 54.329 49.2418 54.5197 49.4151C54.7105 49.5828 54.9648 49.6694 55.2711 49.6694C55.7103 49.6694 56.0571 49.4729 56.3114 49.0741H56.3172V49.6174H56.7564V47.6235C56.7564 47.4327 56.7275 47.2651 56.664 47.1149C56.479 46.6929 56.1033 46.4791 55.5369 46.4791C54.9243 46.4791 54.5024 46.745 54.2712 47.2767L54.6411 47.4847C54.8318 47.0802 55.1266 46.8779 55.5254 46.8779C56.0513 46.8779 56.3114 47.1264 56.3114 47.6292V47.8373H55.456ZM56.3114 48.317C56.3114 48.6002 56.2189 48.8256 56.0398 49.0048C55.8606 49.184 55.6294 49.2707 55.352 49.2707C54.9648 49.2707 54.6873 49.0684 54.6873 48.7274C54.7047 48.3228 55.0977 48.2014 55.4503 48.2072H56.3114V48.317ZM57.9722 48.0569C57.9722 47.7275 58.0763 47.4501 58.2843 47.2247C58.4982 46.9935 58.7641 46.8779 59.0877 46.8779C59.5963 46.8779 59.9142 47.1669 60.0529 47.5541L60.4459 47.3807C60.2668 46.8663 59.7813 46.4791 59.0877 46.4791C58.6485 46.4791 58.2728 46.6351 57.9665 46.9415C57.6601 47.2478 57.5099 47.6292 57.5099 48.0743C57.5099 48.5309 57.6601 48.9123 57.9607 49.2186C58.267 49.5192 58.6369 49.6694 59.0819 49.6694C59.7813 49.6694 60.2668 49.2822 60.4575 48.7505L60.0645 48.5771C59.8853 49.0395 59.5559 49.2707 59.0877 49.2707C58.7583 49.2707 58.4924 49.1493 58.2843 48.9123C58.0763 48.6754 57.9722 48.3864 57.9722 48.0569ZM61.6516 49.6174V48.0743H61.669L63.2063 49.6174H63.8363L62.1371 47.9182L63.7612 46.5311H63.1196L61.6516 47.7853V44.907H61.2008V49.6174H61.6516ZM66.3116 48.7389C66.3116 48.5482 66.2364 48.3748 66.092 48.2303C65.9243 48.0569 65.6527 47.9298 65.2828 47.8489C64.7106 47.7275 64.5604 47.6177 64.5604 47.3634C64.5604 47.2304 64.6239 47.1206 64.7453 47.0224C64.8667 46.9241 65.0169 46.8779 65.1846 46.8779C65.5024 46.8779 65.7452 47.0513 65.907 47.3981L66.2769 47.1958C66.0688 46.7161 65.7047 46.4791 65.1846 46.4791C64.9071 46.4791 64.6586 46.5658 64.439 46.7392C64.2194 46.9126 64.1095 47.1322 64.1095 47.3981C64.1095 47.5772 64.1673 47.7275 64.2771 47.8604C64.4448 48.0512 64.6586 48.1494 65.0805 48.2419C65.6411 48.3748 65.855 48.5077 65.855 48.7678C65.855 49.0741 65.5487 49.2707 65.1961 49.2707C64.832 49.2707 64.5546 49.0684 64.3638 48.6696L63.9939 48.8719C64.2309 49.4036 64.6355 49.6694 65.2019 49.6694C65.5198 49.6694 65.7856 49.5828 65.9937 49.4094C66.2075 49.2302 66.3116 49.0106 66.3116 48.7389Z" fill="#161E2E"/>
<path d="M39.8738 30.4445V35.4797C39.8738 36.6761 39.1664 37.4876 37.9908 37.4876C36.8673 37.4876 36.0974 36.6969 36.0974 35.4381V30.4445H34.8178V35.4901C34.8178 36.4368 35.0883 37.2171 35.6189 37.8101C36.1494 38.4031 36.9401 38.6944 37.97 38.6944C38.9999 38.6944 39.7906 38.4031 40.3316 37.8101C40.8829 37.2171 41.1534 36.416 41.1534 35.4277V30.4445H39.8738ZM44.7323 38.684C45.3565 38.684 45.8663 38.5279 46.2512 38.2054C46.6362 37.8829 46.8338 37.4668 46.8338 36.957C46.8338 36.0935 46.168 35.4901 44.9092 35.2092C44.1914 35.0532 43.8793 34.8659 43.8793 34.5018C43.8793 34.2001 44.2746 33.9608 44.6595 33.9608C45.1901 33.9608 45.575 34.2105 45.8247 34.7099L46.7818 34.1689C46.3969 33.3366 45.6999 32.9205 44.7011 32.9205C44.1602 32.9205 43.692 33.0766 43.2863 33.3991C42.8805 33.7216 42.6829 34.1273 42.6829 34.6267C42.6829 35.022 42.8181 35.3549 43.0782 35.6358C43.3799 35.9583 43.8481 36.1768 44.4619 36.3016C45.2213 36.4576 45.6062 36.7073 45.6062 37.0298C45.6062 37.4044 45.2005 37.6436 44.7323 37.6436C44.1394 37.6436 43.7024 37.3419 43.4007 36.7489L42.4332 37.2899C42.8597 38.2158 43.6296 38.684 44.7323 38.684ZM53.2626 36.1768C53.273 36.0831 53.2834 35.9583 53.2834 35.7918C53.2834 34.9284 53.0441 34.2417 52.5656 33.7112C52.087 33.1806 51.4212 32.9205 50.5785 32.9205C49.7775 32.9205 49.1117 33.2014 48.5811 33.7632C48.0505 34.325 47.78 35.0012 47.78 35.8022C47.78 36.6241 48.0609 37.3211 48.6123 37.8725C49.1741 38.4239 49.8711 38.6944 50.693 38.6944C51.6917 38.6944 52.5968 38.2158 53.0649 37.3523L52.1702 36.7593C51.8685 37.3315 51.3692 37.6228 50.6722 37.6228C50.2456 37.6228 49.8711 37.4876 49.5486 37.2171C49.2261 36.9362 49.0596 36.5929 49.0492 36.1768H53.2626ZM50.5785 33.9817C51.3692 33.9817 51.983 34.4602 52.0246 35.2405H49.1117C49.2261 34.481 49.8191 33.9817 50.5785 33.9817ZM57.5928 33.0141C57.52 32.9933 57.4264 32.9829 57.2911 32.9829C56.6149 32.9829 56.1051 33.295 55.7618 33.9192V33.0349H54.555V38.5903H55.793V35.771C55.793 34.8035 56.2924 34.2521 57.2391 34.2521C57.3743 34.2521 57.4888 34.2625 57.5928 34.2833V33.0141ZM59.9709 38.5903H61.2817L62.0307 36.6761H66.0256L66.7643 38.5903H68.0959L64.798 30.4445H63.2895L59.9709 38.5903ZM64.0282 31.6721L65.5783 35.5422H62.4885L64.0282 31.6721ZM71.4179 38.684C72.0941 38.684 72.6455 38.5175 73.072 38.1846C73.4985 37.8517 73.8002 37.4564 73.9563 37.009L72.8743 36.5305C72.6143 37.2171 72.1357 37.5604 71.4387 37.5604C70.9705 37.5604 70.5752 37.3939 70.2631 37.061C69.951 36.7281 69.795 36.3016 69.795 35.7814C69.795 35.2717 69.951 34.8555 70.2631 34.533C70.5856 34.2105 70.9705 34.0441 71.4283 34.0441C72.1357 34.0441 72.6143 34.3874 72.8535 35.0636L73.9147 34.585C73.5818 33.5967 72.6663 32.9205 71.4179 32.9205C70.596 32.9205 69.9094 33.2014 69.358 33.7736C68.8066 34.3458 68.5257 35.022 68.5257 35.8022C68.5257 36.6241 68.8066 37.3107 69.358 37.8621C69.9094 38.4135 70.596 38.684 71.4179 38.684ZM78.1757 34.1481V33.0349H76.8129V31.3184H75.5749V33.0349H74.5554V34.1481H75.5749V36.801C75.5749 38.0077 76.2823 38.6528 77.4995 38.6528C77.7388 38.6528 77.9677 38.6111 78.1653 38.5383V37.4876C78.0301 37.5188 77.8948 37.5292 77.77 37.5292C77.1354 37.5292 76.8129 37.2691 76.8129 36.6033V34.1481H78.1757ZM79.5179 31.8074C79.8404 32.1299 80.3398 32.1299 80.6623 31.8074C80.9848 31.4849 80.9848 30.9855 80.6623 30.663C80.3398 30.3301 79.8404 30.3301 79.5179 30.663C79.1954 30.9855 79.1954 31.4849 79.5179 31.8074ZM80.7143 33.0349H79.4763V38.5903H80.7143V33.0349ZM81.7164 33.0349L84.0675 38.5903H85.3055L87.6255 33.0349H86.325L84.6917 37.1443L83.0584 33.0349H81.7164ZM88.692 31.8074C89.0145 32.1299 89.5138 32.1299 89.8363 31.8074C90.1588 31.4849 90.1588 30.9855 89.8363 30.663C89.5138 30.3301 89.0145 30.3301 88.692 30.663C88.3695 30.9855 88.3695 31.4849 88.692 31.8074ZM89.8884 33.0349H88.6504V38.5903H89.8884V33.0349ZM94.5732 34.1481V33.0349H93.2103V31.3184H91.9724V33.0349H90.9528V34.1481H91.9724V36.801C91.9724 38.0077 92.6798 38.6528 93.897 38.6528C94.1362 38.6528 94.3651 38.6111 94.5628 38.5383V37.4876C94.4275 37.5188 94.2923 37.5292 94.1675 37.5292C93.5329 37.5292 93.2103 37.2691 93.2103 36.6033V34.1481H94.5732ZM96.6228 33.0349H95.208L97.6839 37.9661L96.1547 41.3264H97.4759L101.294 33.0349H99.9519L98.3498 36.6761L96.6228 33.0349Z" fill="#161E2E"/>
<rect x="159.289" y="32.6361" width="16.183" height="16.183" rx="2.31185" fill="#F4FBF7"/>
<path d="M167.381 40.1497C167.266 40.1497 167.155 40.1836 167.06 40.2471C166.964 40.3106 166.89 40.4008 166.847 40.5064C166.803 40.6121 166.791 40.7283 166.814 40.8404C166.836 40.9525 166.891 41.0555 166.972 41.1363C167.053 41.2171 167.156 41.2722 167.268 41.2945C167.38 41.3168 167.496 41.3053 167.602 41.2616C167.707 41.2178 167.798 41.1438 167.861 41.0487C167.925 40.9537 167.959 40.8419 167.959 40.7276C167.959 40.5743 167.898 40.4273 167.789 40.3189C167.681 40.2106 167.534 40.1497 167.381 40.1497ZM165.358 40.1497C165.243 40.1497 165.132 40.1836 165.037 40.2471C164.942 40.3106 164.868 40.4008 164.824 40.5064C164.78 40.6121 164.769 40.7283 164.791 40.8404C164.813 40.9525 164.868 41.0555 164.949 41.1363C165.03 41.2171 165.133 41.2722 165.245 41.2945C165.357 41.3168 165.473 41.3053 165.579 41.2616C165.685 41.2178 165.775 41.1438 165.838 41.0487C165.902 40.9537 165.936 40.8419 165.936 40.7276C165.936 40.5743 165.875 40.4273 165.766 40.3189C165.658 40.2106 165.511 40.1497 165.358 40.1497ZM169.403 40.1497C169.289 40.1497 169.177 40.1836 169.082 40.2471C168.987 40.3106 168.913 40.4008 168.87 40.5064C168.826 40.6121 168.814 40.7283 168.837 40.8404C168.859 40.9525 168.914 41.0555 168.995 41.1363C169.076 41.2171 169.179 41.2722 169.291 41.2945C169.403 41.3168 169.519 41.3053 169.625 41.2616C169.73 41.2178 169.821 41.1438 169.884 41.0487C169.948 40.9537 169.981 40.8419 169.981 40.7276C169.981 40.5743 169.921 40.4273 169.812 40.3189C169.704 40.2106 169.557 40.1497 169.403 40.1497Z" fill="#00B871"/>
<line x1="39.766" y1="68.8517" x2="176.998" y2="68.8517" stroke="#2FDF84" stroke-opacity="0.5" stroke-width="0.231185" stroke-linecap="round" stroke-dasharray="1.73 1.73"/>
<line x1="39.766" y1="86.5986" x2="176.998" y2="86.5986" stroke="#2FDF84" stroke-opacity="0.5" stroke-width="0.231185" stroke-linecap="round" stroke-dasharray="1.73 1.73"/>
<line x1="39.766" y1="104.346" x2="176.998" y2="104.346" stroke="#2FDF84" stroke-opacity="0.5" stroke-width="0.231185" stroke-linecap="round" stroke-dasharray="1.73 1.73"/>
<line x1="39.766" y1="122.092" x2="176.998" y2="122.092" stroke="#2FDF84" stroke-opacity="0.5" stroke-width="0.231185" stroke-linecap="round" stroke-dasharray="1.73 1.73"/>
<line x1="39.766" y1="139.839" x2="176.998" y2="139.839" stroke="#2FDF84" stroke-opacity="0.5" stroke-width="0.231185" stroke-linecap="round" stroke-dasharray="1.73 1.73"/>
<line x1="39.766" y1="157.586" x2="176.998" y2="157.586" stroke="#2FDF84" stroke-opacity="0.5" stroke-width="0.231185" stroke-linecap="round" stroke-dasharray="1.73 1.73"/>
<path d="M41.9629 163.138H42.1573L42.2684 162.854H42.861L42.9706 163.138H43.1681L42.6789 161.93H42.4552L41.9629 163.138ZM42.5647 162.112L42.7947 162.686H42.3363L42.5647 162.112ZM44.1545 162.723C44.1545 162.614 44.1175 162.515 44.0418 162.429C43.9678 162.342 43.8706 162.299 43.7502 162.299C43.7039 162.299 43.6545 162.31 43.6005 162.333C43.5465 162.356 43.5048 162.392 43.474 162.442V162.314H43.295V163.544H43.4786V163.018C43.5079 163.063 43.548 163.095 43.602 163.118C43.6561 163.14 43.7039 163.151 43.7456 163.151C43.8644 163.151 43.9616 163.109 44.0388 163.024C44.1159 162.939 44.1545 162.839 44.1545 162.723ZM43.5434 162.54C43.5897 162.489 43.6499 162.464 43.7224 162.464C43.7949 162.464 43.8551 162.489 43.8999 162.54C43.9462 162.591 43.9693 162.652 43.9693 162.725C43.9693 162.797 43.9462 162.859 43.8999 162.91C43.8551 162.959 43.7949 162.984 43.7224 162.984C43.6499 162.984 43.5897 162.959 43.5434 162.91C43.4987 162.859 43.4755 162.797 43.4755 162.725C43.4755 162.652 43.4987 162.591 43.5434 162.54ZM44.7959 162.311C44.7851 162.308 44.7712 162.307 44.7512 162.307C44.6509 162.307 44.5753 162.353 44.5243 162.446V162.314H44.3453V163.138H44.529V162.72C44.529 162.577 44.603 162.495 44.7435 162.495C44.7635 162.495 44.7805 162.496 44.7959 162.5V162.311ZM45.2649 163.138H46.1152V162.967H45.5335L45.8143 162.734C45.9208 162.646 45.9964 162.571 46.0412 162.507C46.0859 162.442 46.1091 162.365 46.1091 162.277C46.1091 162.169 46.0705 162.081 45.9933 162.015C45.9162 161.947 45.8174 161.913 45.6986 161.913C45.5952 161.913 45.5057 161.939 45.4301 161.993C45.356 162.047 45.3066 162.118 45.2819 162.206L45.4517 162.277C45.4995 162.151 45.5813 162.088 45.697 162.088C45.8313 162.088 45.9131 162.175 45.9131 162.291C45.9131 162.345 45.8976 162.393 45.8668 162.436C45.8359 162.478 45.7788 162.535 45.697 162.604L45.2649 162.973V163.138ZM46.2869 162.534C46.2869 162.711 46.3332 162.858 46.4273 162.976C46.5214 163.094 46.6433 163.152 46.793 163.152C46.9427 163.152 47.0662 163.094 47.1603 162.975C47.2544 162.856 47.3023 162.708 47.3023 162.53C47.3023 162.355 47.256 162.208 47.1618 162.091C47.0677 161.972 46.9458 161.913 46.7961 161.913C46.6464 161.913 46.5245 161.973 46.4288 162.092C46.3347 162.211 46.2869 162.358 46.2869 162.534ZM47.1063 162.534C47.1063 162.659 47.0785 162.765 47.0214 162.85C46.9643 162.935 46.8902 162.978 46.7961 162.978C46.702 162.978 46.6264 162.935 46.5693 162.848C46.5122 162.762 46.4844 162.655 46.4844 162.53C46.4844 162.405 46.5122 162.3 46.5677 162.216C46.6248 162.131 46.6989 162.088 46.793 162.088C46.8872 162.088 46.9628 162.131 47.0199 162.217C47.077 162.304 47.1063 162.409 47.1063 162.534ZM47.4576 163.138H48.3079V162.967H47.7261L48.007 162.734C48.1135 162.646 48.1891 162.571 48.2338 162.507C48.2786 162.442 48.3017 162.365 48.3017 162.277C48.3017 162.169 48.2632 162.081 48.186 162.015C48.1088 161.947 48.0101 161.913 47.8912 161.913C47.7879 161.913 47.6984 161.939 47.6227 161.993C47.5487 162.047 47.4993 162.118 47.4746 162.206L47.6443 162.277C47.6922 162.151 47.774 162.088 47.8897 162.088C48.024 162.088 48.1057 162.175 48.1057 162.291C48.1057 162.345 48.0903 162.393 48.0595 162.436C48.0286 162.478 47.9715 162.535 47.8897 162.604L47.4576 162.973V163.138ZM48.4086 162.152L48.4965 162.297L48.7681 162.134V163.138H48.9579V161.93H48.7774L48.4086 162.152Z" fill="#9BA4B0"/>
<path d="M68.519 163.138H68.7073V161.93H68.4589L68.0561 162.854H68.0546L67.6456 161.93H67.4033V163.138H67.5901V162.262H67.5931L67.9836 163.138H68.124L68.516 162.257H68.519V163.138ZM69.4556 162.58C69.4556 162.626 69.4294 162.649 69.3785 162.649H69.2766C69.1316 162.649 68.934 162.709 68.934 162.901V162.91C68.934 162.981 68.9603 163.04 69.0127 163.084C69.0652 163.129 69.1316 163.152 69.2118 163.152C69.3229 163.152 69.4032 163.111 69.4541 163.026V163.138H69.6346V162.614C69.6346 162.557 69.6254 162.507 69.6069 162.466C69.5559 162.353 69.4525 162.297 69.2982 162.297C69.13 162.297 69.0127 162.367 68.9479 162.507L69.0884 162.588C69.13 162.5 69.1995 162.456 69.2936 162.456C69.397 162.456 69.4556 162.512 69.4556 162.58ZM69.4541 162.805C69.4541 162.929 69.3738 163.006 69.2488 163.006C69.1701 163.006 69.1177 162.961 69.1177 162.893C69.1177 162.858 69.1346 162.83 69.1671 162.81C69.201 162.79 69.238 162.779 69.2766 162.779H69.4541V162.805ZM69.9551 162.314H69.7452L70.1125 163.046L69.8856 163.544H70.0816L70.6479 162.314H70.4489L70.2112 162.854L69.9551 162.314ZM71.1132 163.138H71.9635V162.967H71.3817L71.6626 162.734C71.769 162.646 71.8446 162.571 71.8894 162.507C71.9341 162.442 71.9573 162.365 71.9573 162.277C71.9573 162.169 71.9187 162.081 71.8416 162.015C71.7644 161.947 71.6656 161.913 71.5468 161.913C71.4434 161.913 71.3539 161.939 71.2783 161.993C71.2042 162.047 71.1549 162.118 71.1302 162.206L71.2999 162.277C71.3477 162.151 71.4295 162.088 71.5453 162.088C71.6795 162.088 71.7613 162.175 71.7613 162.291C71.7613 162.345 71.7459 162.393 71.715 162.436C71.6842 162.478 71.6271 162.535 71.5453 162.604L71.1132 162.973V163.138ZM72.1351 162.534C72.1351 162.711 72.1814 162.858 72.2755 162.976C72.3697 163.094 72.4916 163.152 72.6413 163.152C72.791 163.152 72.9144 163.094 73.0085 162.975C73.1027 162.856 73.1505 162.708 73.1505 162.53C73.1505 162.355 73.1042 162.208 73.0101 162.091C72.9159 161.972 72.794 161.913 72.6444 161.913C72.4947 161.913 72.3728 161.973 72.2771 162.092C72.1829 162.211 72.1351 162.358 72.1351 162.534ZM72.9545 162.534C72.9545 162.659 72.9267 162.765 72.8697 162.85C72.8126 162.935 72.7385 162.978 72.6444 162.978C72.5502 162.978 72.4746 162.935 72.4175 162.848C72.3604 162.762 72.3326 162.655 72.3326 162.53C72.3326 162.405 72.3604 162.3 72.416 162.216C72.4731 162.131 72.5471 162.088 72.6413 162.088C72.7354 162.088 72.811 162.131 72.8681 162.217C72.9252 162.304 72.9545 162.409 72.9545 162.534ZM73.3059 163.138H74.1561V162.967H73.5744L73.8552 162.734C73.9617 162.646 74.0373 162.571 74.0821 162.507C74.1268 162.442 74.15 162.365 74.15 162.277C74.15 162.169 74.1114 162.081 74.0342 162.015C73.9571 161.947 73.8583 161.913 73.7395 161.913C73.6361 161.913 73.5466 161.939 73.471 161.993C73.3969 162.047 73.3475 162.118 73.3228 162.206L73.4926 162.277C73.5404 162.151 73.6222 162.088 73.7379 162.088C73.8722 162.088 73.954 162.175 73.954 162.291C73.954 162.345 73.9386 162.393 73.9077 162.436C73.8768 162.478 73.8197 162.535 73.7379 162.604L73.3059 162.973V163.138ZM74.2568 162.152L74.3448 162.297L74.6164 162.134V163.138H74.8062V161.93H74.6256L74.2568 162.152Z" fill="#9BA4B0"/>
<path d="M93.3923 162.413C93.5018 162.413 93.5898 162.379 93.6592 162.31C93.7287 162.24 93.7642 162.151 93.7642 162.041V161.191H93.5728V162.041C93.5728 162.157 93.508 162.235 93.3892 162.235C93.3012 162.235 93.2349 162.178 93.1901 162.063L93.0327 162.151C93.1022 162.319 93.2302 162.413 93.3923 162.413ZM94.0201 161.575V162.081C94.0201 162.279 94.1296 162.416 94.3287 162.416C94.4336 162.416 94.517 162.373 94.5802 162.288V162.399H94.7592V161.575H94.5756V162.033C94.5756 162.158 94.5015 162.242 94.3858 162.242C94.2639 162.242 94.2037 162.16 94.2037 162.036V161.575H94.0201ZM95.745 162.399V161.891C95.745 161.694 95.6386 161.558 95.4364 161.558C95.3315 161.558 95.2481 161.601 95.1849 161.686V161.575H95.0059V162.399H95.1895V161.941C95.1895 161.816 95.2636 161.732 95.3793 161.732C95.5012 161.732 95.5614 161.814 95.5614 161.938V162.399H95.745ZM96.3399 162.399H97.1902V162.228H96.6084L96.8893 161.995C96.9957 161.907 97.0714 161.831 97.1161 161.768C97.1609 161.703 97.184 161.626 97.184 161.538C97.184 161.43 97.1454 161.342 97.0683 161.276C96.9911 161.208 96.8923 161.174 96.7735 161.174C96.6701 161.174 96.5806 161.2 96.505 161.254C96.4309 161.308 96.3816 161.379 96.3569 161.467L96.5266 161.538C96.5745 161.411 96.6562 161.348 96.772 161.348C96.9062 161.348 96.988 161.436 96.988 161.552C96.988 161.606 96.9726 161.654 96.9417 161.697C96.9109 161.739 96.8538 161.796 96.772 161.865L96.3399 162.234V162.399ZM97.3618 161.794C97.3618 161.972 97.4081 162.118 97.5022 162.237C97.5964 162.354 97.7183 162.413 97.868 162.413C98.0177 162.413 98.1411 162.354 98.2352 162.235C98.3294 162.117 98.3772 161.969 98.3772 161.791C98.3772 161.615 98.3309 161.469 98.2368 161.351C98.1427 161.232 98.0207 161.174 97.8711 161.174C97.7214 161.174 97.5995 161.234 97.5038 161.353C97.4097 161.472 97.3618 161.618 97.3618 161.794ZM98.1812 161.794C98.1812 161.919 98.1535 162.026 98.0964 162.11C98.0393 162.195 97.9652 162.239 97.8711 162.239C97.7769 162.239 97.7013 162.195 97.6442 162.109C97.5871 162.023 97.5593 161.916 97.5593 161.791C97.5593 161.666 97.5871 161.561 97.6427 161.476C97.6998 161.391 97.7738 161.348 97.868 161.348C97.9621 161.348 98.0377 161.391 98.0948 161.478C98.1519 161.564 98.1812 161.669 98.1812 161.794ZM98.5326 162.399H99.3829V162.228H98.8011L99.0819 161.995C99.1884 161.907 99.264 161.831 99.3088 161.768C99.3535 161.703 99.3767 161.626 99.3767 161.538C99.3767 161.43 99.3381 161.342 99.2609 161.276C99.1838 161.208 99.085 161.174 98.9662 161.174C98.8628 161.174 98.7733 161.2 98.6977 161.254C98.6236 161.308 98.5742 161.379 98.5495 161.467L98.7193 161.538C98.7671 161.411 98.8489 161.348 98.9647 161.348C99.0989 161.348 99.1807 161.436 99.1807 161.552C99.1807 161.606 99.1653 161.654 99.1344 161.697C99.1035 161.739 99.0464 161.796 98.9647 161.865L98.5326 162.234V162.399ZM99.4835 161.413L99.5715 161.558L99.8431 161.394V162.399H100.033V161.191H99.8523L99.4835 161.413Z" fill="#9BA4B0"/>
<path d="M118.678 162.413C118.788 162.413 118.876 162.379 118.945 162.31C119.015 162.24 119.05 162.151 119.05 162.041V161.191H118.859V162.041C118.859 162.157 118.794 162.235 118.675 162.235C118.587 162.235 118.521 162.178 118.476 162.063L118.319 162.151C118.388 162.319 118.516 162.413 118.678 162.413ZM119.306 161.575V162.081C119.306 162.279 119.416 162.416 119.615 162.416C119.72 162.416 119.803 162.373 119.866 162.288V162.399H120.045V161.575H119.862V162.033C119.862 162.158 119.788 162.242 119.672 162.242C119.55 162.242 119.49 162.16 119.49 162.036V161.575H119.306ZM120.292 162.399H120.476V161.143H120.292V162.399ZM121.079 162.399H121.929V162.228H121.348L121.628 161.995C121.735 161.907 121.81 161.831 121.855 161.768C121.9 161.703 121.923 161.626 121.923 161.538C121.923 161.43 121.885 161.342 121.807 161.276C121.73 161.208 121.631 161.174 121.513 161.174C121.409 161.174 121.32 161.2 121.244 161.254C121.17 161.308 121.121 161.379 121.096 161.467L121.266 161.538C121.314 161.411 121.395 161.348 121.511 161.348C121.645 161.348 121.727 161.436 121.727 161.552C121.727 161.606 121.712 161.654 121.681 161.697C121.65 161.739 121.593 161.796 121.511 161.865L121.079 162.234V162.399ZM122.101 161.794C122.101 161.972 122.147 162.118 122.241 162.237C122.335 162.354 122.457 162.413 122.607 162.413C122.757 162.413 122.88 162.354 122.974 162.235C123.068 162.117 123.116 161.969 123.116 161.791C123.116 161.615 123.07 161.469 122.976 161.351C122.882 161.232 122.76 161.174 122.61 161.174C122.46 161.174 122.339 161.234 122.243 161.353C122.149 161.472 122.101 161.618 122.101 161.794ZM122.92 161.794C122.92 161.919 122.893 162.026 122.835 162.11C122.778 162.195 122.704 162.239 122.61 162.239C122.516 162.239 122.44 162.195 122.383 162.109C122.326 162.023 122.298 161.916 122.298 161.791C122.298 161.666 122.326 161.561 122.382 161.476C122.439 161.391 122.513 161.348 122.607 161.348C122.701 161.348 122.777 161.391 122.834 161.478C122.891 161.564 122.92 161.669 122.92 161.794ZM123.272 162.399H124.122V162.228H123.54L123.821 161.995C123.928 161.907 124.003 161.831 124.048 161.768C124.093 161.703 124.116 161.626 124.116 161.538C124.116 161.43 124.077 161.342 124 161.276C123.923 161.208 123.824 161.174 123.705 161.174C123.602 161.174 123.512 161.2 123.437 161.254C123.363 161.308 123.313 161.379 123.289 161.467L123.458 161.538C123.506 161.411 123.588 161.348 123.704 161.348C123.838 161.348 123.92 161.436 123.92 161.552C123.92 161.606 123.904 161.654 123.873 161.697C123.843 161.739 123.786 161.796 123.704 161.865L123.272 162.234V162.399ZM124.223 161.413L124.311 161.558L124.582 161.394V162.399H124.772V161.191H124.591L124.223 161.413Z" fill="#9BA4B0"/>
<path d="M143.106 162.399H143.301L143.412 162.115H144.005L144.114 162.399H144.312L143.822 161.191H143.599L143.106 162.399ZM143.708 161.373L143.938 161.947H143.48L143.708 161.373ZM144.429 161.575V162.081C144.429 162.279 144.539 162.416 144.738 162.416C144.843 162.416 144.926 162.373 144.989 162.288V162.399H145.168V161.575H144.985V162.033C144.985 162.158 144.911 162.242 144.795 162.242C144.673 162.242 144.613 162.16 144.613 162.036V161.575H144.429ZM145.759 162.405C145.802 162.405 145.85 162.394 145.904 162.371C145.958 162.348 146 162.314 146.029 162.266V162.396C146.029 162.561 145.923 162.647 145.779 162.647C145.663 162.647 145.577 162.589 145.52 162.473L145.367 162.561C145.443 162.728 145.582 162.811 145.782 162.811C145.912 162.811 146.015 162.772 146.094 162.697C146.173 162.621 146.213 162.518 146.213 162.388V161.575H146.034V161.7C146.005 161.654 145.963 161.62 145.91 161.597C145.858 161.573 145.81 161.561 145.765 161.561C145.643 161.561 145.545 161.604 145.469 161.691C145.395 161.777 145.358 161.874 145.358 161.984C145.358 162.098 145.395 162.197 145.471 162.28C145.546 162.364 145.643 162.405 145.759 162.405ZM146.032 161.981C146.032 162.053 146.009 162.115 145.963 162.166C145.918 162.215 145.859 162.24 145.787 162.24C145.714 162.24 145.656 162.215 145.609 162.166C145.565 162.115 145.542 162.053 145.542 161.981C145.542 161.908 145.565 161.847 145.609 161.799C145.654 161.749 145.714 161.725 145.787 161.725C145.859 161.725 145.92 161.749 145.964 161.799C146.009 161.848 146.032 161.908 146.032 161.981ZM146.817 162.399H147.667V162.228H147.085L147.366 161.995C147.473 161.907 147.548 161.831 147.593 161.768C147.638 161.703 147.661 161.626 147.661 161.538C147.661 161.43 147.622 161.342 147.545 161.276C147.468 161.208 147.369 161.174 147.251 161.174C147.147 161.174 147.058 161.2 146.982 161.254C146.908 161.308 146.859 161.379 146.834 161.467L147.004 161.538C147.051 161.411 147.133 161.348 147.249 161.348C147.383 161.348 147.465 161.436 147.465 161.552C147.465 161.606 147.45 161.654 147.419 161.697C147.388 161.739 147.331 161.796 147.249 161.865L146.817 162.234V162.399ZM147.839 161.794C147.839 161.972 147.885 162.118 147.979 162.237C148.073 162.354 148.195 162.413 148.345 162.413C148.495 162.413 148.618 162.354 148.712 162.235C148.806 162.117 148.854 161.969 148.854 161.791C148.854 161.615 148.808 161.469 148.714 161.351C148.62 161.232 148.498 161.174 148.348 161.174C148.198 161.174 148.076 161.234 147.981 161.353C147.887 161.472 147.839 161.618 147.839 161.794ZM148.658 161.794C148.658 161.919 148.63 162.026 148.573 162.11C148.516 162.195 148.442 162.239 148.348 162.239C148.254 162.239 148.178 162.195 148.121 162.109C148.064 162.023 148.036 161.916 148.036 161.791C148.036 161.666 148.064 161.561 148.12 161.476C148.177 161.391 148.251 161.348 148.345 161.348C148.439 161.348 148.515 161.391 148.572 161.478C148.629 161.564 148.658 161.669 148.658 161.794ZM149.01 162.399H149.86V162.228H149.278L149.559 161.995C149.665 161.907 149.741 161.831 149.786 161.768C149.831 161.703 149.854 161.626 149.854 161.538C149.854 161.43 149.815 161.342 149.738 161.276C149.661 161.208 149.562 161.174 149.443 161.174C149.34 161.174 149.25 161.2 149.175 161.254C149.101 161.308 149.051 161.379 149.027 161.467L149.196 161.538C149.244 161.411 149.326 161.348 149.442 161.348C149.576 161.348 149.658 161.436 149.658 161.552C149.658 161.606 149.642 161.654 149.611 161.697C149.581 161.739 149.523 161.796 149.442 161.865L149.01 162.234V162.399ZM149.961 161.413L150.048 161.558L150.32 161.394V162.399H150.51V161.191H150.329L149.961 161.413Z" fill="#9BA4B0"/>
<path d="M169.357 163.152C169.482 163.152 169.582 163.118 169.656 163.049C169.73 162.979 169.767 162.898 169.767 162.804C169.767 162.716 169.738 162.643 169.681 162.588C169.624 162.53 169.52 162.479 169.371 162.435C169.222 162.39 169.147 162.341 169.147 162.25C169.147 162.152 169.232 162.084 169.349 162.084C169.465 162.084 169.546 162.142 169.593 162.254L169.75 162.169C169.693 162.02 169.557 161.913 169.354 161.913C169.241 161.913 169.147 161.947 169.068 162.015C168.991 162.081 168.952 162.163 168.952 162.26C168.952 162.353 168.983 162.427 169.045 162.481C169.104 162.534 169.198 162.58 169.329 162.621C169.502 162.675 169.571 162.726 169.571 162.814C169.571 162.915 169.483 162.979 169.36 162.979C169.229 162.979 169.124 162.908 169.073 162.779L168.912 162.862C168.98 163.047 169.145 163.152 169.357 163.152ZM170.722 162.78C170.723 162.767 170.725 162.748 170.725 162.723C170.725 162.595 170.689 162.493 170.618 162.415C170.547 162.336 170.449 162.297 170.324 162.297C170.205 162.297 170.106 162.339 170.027 162.422C169.949 162.506 169.909 162.606 169.909 162.725C169.909 162.847 169.95 162.95 170.032 163.032C170.115 163.114 170.219 163.154 170.341 163.154C170.489 163.154 170.623 163.083 170.692 162.955L170.56 162.867C170.515 162.952 170.441 162.995 170.338 162.995C170.274 162.995 170.219 162.975 170.171 162.935C170.123 162.893 170.098 162.842 170.097 162.78H170.722ZM170.324 162.455C170.441 162.455 170.532 162.526 170.538 162.642H170.106C170.123 162.529 170.211 162.455 170.324 162.455ZM171.346 162.479V162.314H171.144V162.06H170.96V162.314H170.809V162.479H170.96V162.873C170.96 163.052 171.065 163.148 171.246 163.148C171.281 163.148 171.315 163.142 171.344 163.131V162.975C171.324 162.979 171.304 162.981 171.286 162.981C171.192 162.981 171.144 162.942 171.144 162.844V162.479H171.346ZM172.398 162.723C172.398 162.614 172.361 162.515 172.286 162.429C172.212 162.342 172.114 162.299 171.994 162.299C171.948 162.299 171.898 162.31 171.844 162.333C171.79 162.356 171.749 162.392 171.718 162.442V162.314H171.539V163.544H171.723V163.018C171.752 163.063 171.792 163.095 171.846 163.118C171.9 163.14 171.948 163.151 171.99 163.151C172.108 163.151 172.206 163.109 172.283 163.024C172.36 162.939 172.398 162.839 172.398 162.723ZM171.787 162.54C171.834 162.489 171.894 162.464 171.966 162.464C172.039 162.464 172.099 162.489 172.144 162.54C172.19 162.591 172.213 162.652 172.213 162.725C172.213 162.797 172.19 162.859 172.144 162.91C172.099 162.959 172.039 162.984 171.966 162.984C171.894 162.984 171.834 162.959 171.787 162.91C171.743 162.859 171.719 162.797 171.719 162.725C171.719 162.652 171.743 162.591 171.787 162.54ZM172.947 163.138H173.797V162.967H173.215L173.496 162.734C173.603 162.646 173.678 162.571 173.723 162.507C173.768 162.442 173.791 162.365 173.791 162.277C173.791 162.169 173.752 162.081 173.675 162.015C173.598 161.947 173.499 161.913 173.38 161.913C173.277 161.913 173.188 161.939 173.112 161.993C173.038 162.047 172.988 162.118 172.964 162.206L173.134 162.277C173.181 162.151 173.263 162.088 173.379 162.088C173.513 162.088 173.595 162.175 173.595 162.291C173.595 162.345 173.579 162.393 173.549 162.436C173.518 162.478 173.461 162.535 173.379 162.604L172.947 162.973V163.138ZM173.969 162.534C173.969 162.711 174.015 162.858 174.109 162.976C174.203 163.094 174.325 163.152 174.475 163.152C174.625 163.152 174.748 163.094 174.842 162.975C174.936 162.856 174.984 162.708 174.984 162.53C174.984 162.355 174.938 162.208 174.844 162.091C174.75 161.972 174.628 161.913 174.478 161.913C174.328 161.913 174.206 161.973 174.111 162.092C174.017 162.211 173.969 162.358 173.969 162.534ZM174.788 162.534C174.788 162.659 174.76 162.765 174.703 162.85C174.646 162.935 174.572 162.978 174.478 162.978C174.384 162.978 174.308 162.935 174.251 162.848C174.194 162.762 174.166 162.655 174.166 162.53C174.166 162.405 174.194 162.3 174.25 162.216C174.307 162.131 174.381 162.088 174.475 162.088C174.569 162.088 174.645 162.131 174.702 162.217C174.759 162.304 174.788 162.409 174.788 162.534ZM175.139 163.138H175.99V162.967H175.408L175.689 162.734C175.795 162.646 175.871 162.571 175.916 162.507C175.96 162.442 175.984 162.365 175.984 162.277C175.984 162.169 175.945 162.081 175.868 162.015C175.791 161.947 175.692 161.913 175.573 161.913C175.47 161.913 175.38 161.939 175.305 161.993C175.231 162.047 175.181 162.118 175.156 162.206L175.326 162.277C175.374 162.151 175.456 162.088 175.572 162.088C175.706 162.088 175.788 162.175 175.788 162.291C175.788 162.345 175.772 162.393 175.741 162.436C175.71 162.478 175.653 162.535 175.572 162.604L175.139 162.973V163.138ZM176.09 162.152L176.178 162.297L176.45 162.134V163.138H176.64V161.93H176.459L176.09 162.152Z" fill="#9BA4B0"/>
<path d="M35.2369 156.885C35.2369 156.797 35.2091 156.726 35.152 156.672C35.098 156.618 35.01 156.572 34.8897 156.535V156.181C34.9699 156.198 35.0286 156.252 35.0641 156.342L35.2199 156.257C35.1705 156.127 35.0579 156.027 34.8912 156.007L34.8928 155.848H34.7693L34.7678 156.007C34.6706 156.019 34.5888 156.058 34.5255 156.123C34.4622 156.186 34.4298 156.261 34.4298 156.348C34.4298 156.44 34.4607 156.513 34.5224 156.565C34.5764 156.615 34.6582 156.658 34.7709 156.693V157.053C34.6659 157.033 34.5918 156.97 34.5502 156.86L34.3912 156.943C34.4514 157.109 34.5872 157.209 34.7678 157.227L34.7693 157.38H34.8928L34.8912 157.227C34.9977 157.215 35.0826 157.176 35.1443 157.11C35.206 157.044 35.2369 156.97 35.2369 156.885ZM34.6227 156.337C34.6227 156.257 34.6829 156.195 34.7709 156.178V156.496C34.6721 156.457 34.6227 156.411 34.6227 156.337ZM34.8881 156.734C34.9977 156.777 35.0425 156.823 35.0425 156.896C35.0425 156.977 34.9807 157.038 34.8881 157.055V156.734ZM35.3924 156.618C35.3924 156.795 35.4387 156.942 35.5328 157.061C35.6269 157.178 35.7489 157.237 35.8985 157.237C36.0482 157.237 36.1717 157.178 36.2658 157.059C36.36 156.94 36.4078 156.792 36.4078 156.615C36.4078 156.439 36.3615 156.292 36.2674 156.175C36.1732 156.056 36.0513 155.998 35.9016 155.998C35.7519 155.998 35.63 156.058 35.5344 156.177C35.4402 156.295 35.3924 156.442 35.3924 156.618ZM36.2118 156.618C36.2118 156.743 36.184 156.849 36.1269 156.934C36.0698 157.019 35.9958 157.062 35.9016 157.062C35.8075 157.062 35.7319 157.019 35.6748 156.933C35.6177 156.846 35.5899 156.74 35.5899 156.615C35.5899 156.49 35.6177 156.385 35.6732 156.3C35.7303 156.215 35.8044 156.172 35.8985 156.172C35.9927 156.172 36.0683 156.215 36.1254 156.302C36.1825 156.388 36.2118 156.493 36.2118 156.618ZM36.6125 157.223H36.7962V156.82H36.8008L37.1449 157.223H37.3872L36.9952 156.772L37.3671 156.399H37.1171L36.7977 156.723H36.7962V155.967H36.6125V157.223Z" fill="#9BA4B0"/>
<path d="M34.7769 138.398C34.7769 138.311 34.7492 138.24 34.6921 138.186C34.638 138.132 34.5501 138.085 34.4297 138.048V137.695C34.51 137.712 34.5686 137.766 34.6041 137.855L34.76 137.77C34.7106 137.641 34.5979 137.54 34.4313 137.52L34.4328 137.361H34.3094L34.3078 137.52C34.2106 137.533 34.1288 137.571 34.0655 137.636C34.0023 137.699 33.9699 137.775 33.9699 137.861C33.9699 137.954 34.0007 138.027 34.0624 138.079C34.1165 138.128 34.1982 138.172 34.3109 138.207V138.567C34.206 138.547 34.1319 138.483 34.0902 138.374L33.9313 138.457C33.9915 138.622 34.1273 138.723 34.3078 138.741L34.3094 138.894H34.4328L34.4313 138.741C34.5377 138.729 34.6226 138.69 34.6843 138.624C34.7461 138.557 34.7769 138.483 34.7769 138.398ZM34.1628 137.851C34.1628 137.77 34.2229 137.709 34.3109 137.692V138.01C34.2121 137.971 34.1628 137.925 34.1628 137.851ZM34.4282 138.247C34.5377 138.29 34.5825 138.337 34.5825 138.409C34.5825 138.491 34.5208 138.551 34.4282 138.568V138.247ZM34.9247 138.736H35.775V138.565H35.1932L35.4741 138.332C35.5806 138.244 35.6562 138.169 35.7009 138.105C35.7457 138.04 35.7688 137.963 35.7688 137.875C35.7688 137.767 35.7302 137.679 35.6531 137.613C35.5759 137.545 35.4772 137.511 35.3583 137.511C35.2549 137.511 35.1654 137.537 35.0898 137.591C35.0158 137.645 34.9664 137.716 34.9417 137.804L35.1114 137.875C35.1593 137.749 35.2411 137.686 35.3568 137.686C35.4911 137.686 35.5728 137.774 35.5728 137.889C35.5728 137.943 35.5574 137.991 35.5265 138.034C35.4957 138.076 35.4386 138.133 35.3568 138.203L34.9247 138.571V138.736ZM35.9883 138.736H36.1719V138.334H36.1766L36.5207 138.736H36.763L36.371 138.286L36.7429 137.912H36.4929L36.1735 138.236H36.1719V137.48H35.9883V138.736Z" fill="#9BA4B0"/>
<path d="M34.7769 121.391C34.7769 121.303 34.7492 121.232 34.6921 121.178C34.638 121.124 34.5501 121.078 34.4297 121.041V120.687C34.51 120.704 34.5686 120.758 34.6041 120.848L34.76 120.763C34.7106 120.633 34.5979 120.533 34.4313 120.513L34.4328 120.354H34.3094L34.3078 120.513C34.2106 120.525 34.1288 120.564 34.0655 120.629C34.0023 120.692 33.9699 120.768 33.9699 120.854C33.9699 120.947 34.0007 121.019 34.0624 121.072C34.1165 121.121 34.1982 121.164 34.3109 121.2V121.559C34.206 121.539 34.1319 121.476 34.0902 121.366L33.9313 121.45C33.9915 121.615 34.1273 121.715 34.3078 121.734L34.3094 121.887H34.4328L34.4313 121.734C34.5377 121.721 34.6226 121.683 34.6843 121.616C34.7461 121.55 34.7769 121.476 34.7769 121.391ZM34.1628 120.843C34.1628 120.763 34.2229 120.701 34.3109 120.684V121.002C34.2121 120.964 34.1628 120.917 34.1628 120.843ZM34.4282 121.24C34.5377 121.283 34.5825 121.329 34.5825 121.402C34.5825 121.484 34.5208 121.544 34.4282 121.561V121.24ZM35.4741 120.521L34.8985 121.271V121.462H35.5204V121.729H35.7071V121.462H35.8861V121.291H35.7071V120.521H35.4741ZM35.5204 120.735V121.291H35.0929L35.5204 120.735ZM36.0727 121.729H36.2563V121.326H36.261L36.6051 121.729H36.8474L36.4554 121.279L36.8273 120.905H36.5773L36.2579 121.229H36.2563V120.473H36.0727V121.729Z" fill="#9BA4B0"/>
<path d="M34.7769 103.644C34.7769 103.556 34.7492 103.485 34.6921 103.431C34.638 103.377 34.5501 103.331 34.4297 103.294V102.941C34.51 102.958 34.5686 103.012 34.6041 103.101L34.76 103.016C34.7106 102.887 34.5979 102.786 34.4313 102.766L34.4328 102.607H34.3094L34.3078 102.766C34.2106 102.779 34.1288 102.817 34.0655 102.882C34.0023 102.945 33.9699 103.021 33.9699 103.107C33.9699 103.2 34.0007 103.272 34.0624 103.325C34.1165 103.374 34.1982 103.417 34.3109 103.453V103.812C34.206 103.792 34.1319 103.729 34.0902 103.62L33.9313 103.703C33.9915 103.868 34.1273 103.968 34.3078 103.987L34.3094 104.14H34.4328L34.4313 103.987C34.5377 103.974 34.6226 103.936 34.6843 103.87C34.7461 103.803 34.7769 103.729 34.7769 103.644ZM34.1628 103.096C34.1628 103.016 34.2229 102.954 34.3109 102.937V103.255C34.2121 103.217 34.1628 103.17 34.1628 103.096ZM34.4282 103.493C34.5377 103.536 34.5825 103.582 34.5825 103.655C34.5825 103.737 34.5208 103.797 34.4282 103.814V103.493ZM35.4694 102.924C35.5373 102.924 35.6037 102.95 35.6392 102.974C35.6577 102.985 35.6809 103.002 35.7102 103.025L35.8059 102.887C35.7025 102.8 35.5914 102.757 35.4694 102.757C35.0975 102.757 34.9324 103.079 34.9324 103.42C34.9324 103.627 34.9772 103.775 35.0682 103.866C35.1562 103.954 35.2658 103.998 35.3969 103.998C35.5188 103.998 35.6222 103.959 35.7071 103.883C35.7935 103.808 35.8367 103.709 35.8367 103.59C35.8367 103.474 35.7981 103.38 35.7225 103.308C35.6469 103.235 35.5512 103.198 35.4355 103.198C35.3136 103.198 35.1901 103.254 35.1222 103.351H35.1207C35.1284 103.231 35.1608 103.129 35.2195 103.047C35.2796 102.965 35.363 102.924 35.4694 102.924ZM35.3938 103.363C35.4664 103.363 35.525 103.385 35.5713 103.428C35.6176 103.47 35.6407 103.527 35.6407 103.596C35.6407 103.732 35.5358 103.825 35.3938 103.825C35.3213 103.825 35.2611 103.803 35.2133 103.762C35.1654 103.72 35.1408 103.663 35.1408 103.592C35.1408 103.525 35.1654 103.471 35.2164 103.428C35.2673 103.385 35.3259 103.363 35.3938 103.363ZM36.0305 103.982H36.2141V103.579H36.2188L36.5629 103.982H36.8052L36.4132 103.532L36.7851 103.158H36.5351L36.2157 103.482H36.2141V102.726H36.0305V103.982Z" fill="#9BA4B0"/>
<path d="M34.7769 85.8975C34.7769 85.8096 34.7492 85.7386 34.6921 85.6846C34.638 85.6306 34.5501 85.5843 34.4297 85.5472V85.1938C34.51 85.2108 34.5686 85.2648 34.6041 85.3543L34.76 85.2695C34.7106 85.1398 34.5979 85.0395 34.4313 85.0195L34.4328 84.8605H34.3094L34.3078 85.0195C34.2106 85.0318 34.1288 85.0704 34.0655 85.1352C34.0023 85.1985 33.9699 85.2741 33.9699 85.3605C33.9699 85.4531 34.0007 85.5256 34.0624 85.5781C34.1165 85.6275 34.1982 85.6707 34.3109 85.7062V86.0657C34.206 86.0457 34.1319 85.9824 34.0902 85.8728L33.9313 85.9562C33.9915 86.1213 34.1273 86.2216 34.3078 86.2401L34.3094 86.3929H34.4328L34.4313 86.2401C34.5377 86.2278 34.6226 86.1892 34.6843 86.1228C34.7461 86.0565 34.7769 85.9824 34.7769 85.8975ZM34.1628 85.3497C34.1628 85.2695 34.2229 85.2077 34.3109 85.1908V85.5086C34.2121 85.4701 34.1628 85.4238 34.1628 85.3497ZM34.4282 85.7463C34.5377 85.7895 34.5825 85.8358 34.5825 85.9083C34.5825 85.9901 34.5208 86.0503 34.4282 86.0673V85.7463ZM35.3738 86.2494C35.5003 86.2494 35.6052 86.217 35.6901 86.1537C35.775 86.0889 35.8182 86.004 35.8182 85.8991C35.8182 85.7602 35.741 85.663 35.5883 85.6074V85.6059C35.7133 85.5642 35.7873 85.467 35.7873 85.3374C35.7873 85.237 35.7457 85.1583 35.6639 85.0997C35.5821 85.0395 35.4864 85.0102 35.3738 85.0102C35.2642 85.0102 35.167 85.0395 35.0852 85.0997C35.0034 85.1599 34.9617 85.2386 34.9617 85.3374C34.9617 85.467 35.0389 85.5704 35.1624 85.6059V85.6074C35.008 85.6645 34.9309 85.7633 34.9309 85.9068C34.9309 86.0071 34.9725 86.0904 35.0574 86.1537C35.1423 86.217 35.2488 86.2494 35.3738 86.2494ZM35.15 85.3559C35.15 85.2494 35.2426 85.1738 35.3738 85.1738C35.5034 85.1738 35.5991 85.2509 35.5991 85.3559C35.5991 85.4608 35.5034 85.538 35.3738 85.538C35.312 85.538 35.2596 85.521 35.2148 85.487C35.1716 85.4515 35.15 85.4083 35.15 85.3559ZM35.1207 85.8913C35.1207 85.8343 35.1438 85.7895 35.1917 85.754C35.2395 85.7185 35.3012 85.7 35.3738 85.7C35.4448 85.7 35.5049 85.7185 35.5543 85.7556C35.6052 85.791 35.6299 85.8373 35.6299 85.8913C35.6299 85.9469 35.6052 85.9932 35.5543 86.0302C35.5049 86.0657 35.4448 86.0842 35.3738 86.0842C35.3028 86.0842 35.2426 86.0657 35.1932 86.0287C35.1454 85.9917 35.1207 85.9454 35.1207 85.8913ZM36.0215 86.2355H36.2051V85.8327H36.2097L36.5538 86.2355H36.7961L36.4042 85.7849L36.7761 85.4114H36.5261L36.2066 85.7355H36.2051V84.9793H36.0215V86.2355Z" fill="#9BA4B0"/>
<path d="M34.7769 68.1506C34.7769 68.0626 34.7492 67.9916 34.6921 67.9376C34.638 67.8836 34.5501 67.8373 34.4297 67.8003V67.4469C34.51 67.4639 34.5686 67.5179 34.6041 67.6074L34.76 67.5225C34.7106 67.3929 34.5979 67.2926 34.4313 67.2725L34.4328 67.1136H34.3094L34.3078 67.2725C34.2106 67.2849 34.1288 67.3234 34.0655 67.3883C34.0023 67.4515 33.9699 67.5271 33.9699 67.6136C33.9699 67.7061 34.0007 67.7787 34.0624 67.8311C34.1165 67.8805 34.1982 67.9237 34.3109 67.9592V68.3188C34.206 68.2987 34.1319 68.2354 34.0902 68.1259L33.9313 68.2092C33.9915 68.3743 34.1273 68.4746 34.3078 68.4932L34.3094 68.6459H34.4328L34.4313 68.4932C34.5377 68.4808 34.6226 68.4422 34.6843 68.3759C34.7461 68.3095 34.7769 68.2354 34.7769 68.1506ZM34.1628 67.6028C34.1628 67.5225 34.2229 67.4608 34.3109 67.4438V67.7617C34.2121 67.7231 34.1628 67.6768 34.1628 67.6028ZM34.4282 67.9993C34.5377 68.0426 34.5825 68.0888 34.5825 68.1614C34.5825 68.2432 34.5208 68.3033 34.4282 68.3203V67.9993ZM34.8614 67.5024L34.9494 67.6475L35.221 67.4839V68.4885H35.4108V67.2802H35.2303L34.8614 67.5024ZM35.6375 68.4885H36.4878V68.3172H35.906L36.1869 68.0842C36.2934 67.9963 36.369 67.9206 36.4137 67.8574C36.4585 67.7926 36.4816 67.7154 36.4816 67.6274C36.4816 67.5194 36.4431 67.4315 36.3659 67.3651C36.2887 67.2972 36.19 67.2633 36.0711 67.2633C35.9678 67.2633 35.8783 67.2895 35.8026 67.3435C35.7286 67.3975 35.6792 67.4685 35.6545 67.5565L35.8242 67.6274C35.8721 67.5009 35.9539 67.4376 36.0696 67.4376C36.2039 67.4376 36.2856 67.5256 36.2856 67.6413C36.2856 67.6953 36.2702 67.7432 36.2394 67.7864C36.2085 67.8281 36.1514 67.8851 36.0696 67.9546L35.6375 68.3234V68.4885ZM36.7011 68.4885H36.8847V68.0858H36.8894L37.2335 68.4885H37.4758L37.0838 68.0379L37.4557 67.6645H37.2057L36.8863 67.9885H36.8847V67.2324H36.7011V68.4885Z" fill="#9BA4B0"/>
<path d="M52.3662 90.5276C52.3662 89.8892 52.8837 89.3717 53.5221 89.3717H56.9899C57.6283 89.3717 58.1458 89.8892 58.1458 90.5276V157.367H52.3662V90.5276Z" fill="#00B871"/>
<path d="M52.3662 105.634C52.3662 104.996 52.8837 104.478 53.5221 104.478H56.9899C57.6283 104.478 58.1458 104.996 58.1458 105.634V157.651H52.3662V105.634Z" fill="#2FDF84"/>
<path d="M65.0815 120.276C65.0815 119.637 65.5991 119.12 66.2375 119.12H69.7052C70.3436 119.12 70.8612 119.637 70.8612 120.276V157.367H65.0815V120.276Z" fill="#2FDF84"/>
<path d="M65.0815 128.752C65.0815 128.114 65.5991 127.597 66.2375 127.597H69.7052C70.3436 127.597 70.8612 128.114 70.8612 128.752V157.651H65.0815V128.752Z" fill="#00B871"/>
<path d="M90.5117 136.141C90.5117 135.503 91.0292 134.985 91.6676 134.985H95.1354C95.7738 134.985 96.2914 135.503 96.2914 136.141V157.65H90.5117V136.141Z" fill="#2FDF84"/>
<path d="M90.5117 140.89C90.5117 140.251 91.0292 139.734 91.6676 139.734H95.1354C95.7738 139.734 96.2914 140.251 96.2914 140.89V157.651H90.5117V140.89Z" fill="#00B871"/>
<path d="M103.227 98.1204C103.227 97.482 103.745 96.9645 104.383 96.9645H107.851C108.489 96.9645 109.007 97.482 109.007 98.1204V157.651H103.227V98.1204Z" fill="#00B871"/>
<path d="M103.227 105.634C103.227 104.996 103.745 104.478 104.383 104.478H107.851C108.489 104.478 109.007 104.996 109.007 105.634V157.651H103.227V105.634Z" fill="#2FDF84"/>
<path d="M77.7964 106.393C77.7964 105.755 78.3139 105.237 78.9523 105.237H82.4201C83.0585 105.237 83.576 105.755 83.576 106.393V157.651H77.7964V106.393Z" fill="#00B871"/>
<path d="M77.7964 116.615C77.7964 115.977 78.3139 115.459 78.9523 115.459H82.4201C83.0585 115.459 83.576 115.977 83.576 116.615V157.651H77.7964V116.615Z" fill="#2FDF84"/>
<path d="M115.942 70.3782C115.942 69.7398 116.46 69.2223 117.098 69.2223H120.566C121.204 69.2223 121.722 69.7398 121.722 70.3782V157.651H115.942V70.3782Z" fill="#00B871"/>
<path d="M115.942 87.7171C115.942 87.0787 116.46 86.5612 117.098 86.5612H120.566C121.204 86.5612 121.722 87.0787 121.722 87.7171V157.651H115.942V87.7171Z" fill="#2FDF84"/>
<path d="M128.657 120.276C128.657 119.637 129.175 119.12 129.813 119.12H133.281C133.919 119.12 134.437 119.637 134.437 120.276V157.367H128.657V120.276Z" fill="#2FDF84"/>
<path d="M128.657 131.064C128.657 130.426 129.175 129.908 129.813 129.908H133.281C133.919 129.908 134.437 130.426 134.437 131.064V157.651H128.657V131.064Z" fill="#00B871"/>
<path d="M154.088 136.141C154.088 135.503 154.605 134.985 155.244 134.985H158.712C159.35 134.985 159.868 135.503 159.868 136.141V157.65H154.088V136.141Z" fill="#2FDF84"/>
<path d="M154.088 140.89C154.088 140.251 154.605 139.734 155.244 139.734H158.712C159.35 139.734 159.868 140.251 159.868 140.89V157.651H154.088V140.89Z" fill="#00B871"/>
<path d="M166.803 86.5612C166.803 85.9228 167.32 85.4053 167.959 85.4053H171.426C172.065 85.4053 172.582 85.9228 172.582 86.5612V157.651H166.803V86.5612Z" fill="#00B871"/>
<path d="M166.803 91.7629C166.803 91.1245 167.32 90.6069 167.959 90.6069H171.426C172.065 90.6069 172.582 91.1245 172.582 91.7629V157.651H166.803V91.7629Z" fill="#2FDF84"/>
<path d="M141.373 106.393C141.373 105.755 141.89 105.237 142.528 105.237H145.996C146.635 105.237 147.152 105.755 147.152 106.393V157.651H141.373V106.393Z" fill="#00B871"/>
<path d="M141.373 110.258C141.373 109.619 141.89 109.102 142.528 109.102H145.996C146.635 109.102 147.152 109.619 147.152 110.258V157.651H141.373V110.258Z" fill="#2FDF84"/>
</g>
<defs>
<filter id="filter0_d_144_8806" x="0" y="0.719238" width="210.985" height="202.85" filterUnits="userSpaceOnUse" color-interpolation-filters="sRGB">
<feFlood flood-opacity="0" result="BackgroundImageFix"/>
<feColorMatrix in="SourceAlpha" type="matrix" values="0 0 0 0 0 0 0 0 0 0 0 0 0 0 0 0 0 0 127 0" result="hardAlpha"/>
<feMorphology radius="4" operator="dilate" in="SourceAlpha" result="effect1_dropShadow_144_8806"/>
<feOffset dy="6"/>
<feGaussianBlur stdDeviation="8"/>
<feComposite in2="hardAlpha" operator="out"/>
<feColorMatrix type="matrix" values="0 0 0 0 0.184314 0 0 0 0 0.87451 0 0 0 0 0.517647 0 0 0 0.15 0"/>
<feBlend mode="normal" in2="BackgroundImageFix" result="effect1_dropShadow_144_8806"/>
<feBlend mode="normal" in="SourceGraphic" in2="effect1_dropShadow_144_8806" result="shape"/>
</filter>
</defs>
</svg>
