<svg width="347" height="282" viewBox="0 0 347 282" fill="none" xmlns="http://www.w3.org/2000/svg">
<g filter="url(#filter0_d_146_9821)">
<g clip-path="url(#clip0_146_9821)">
<rect x="20.5742" y="14.4038" width="306.341" height="241.165" rx="8" fill="#F7F7F8"/>
<rect x="20.5742" y="14.4038" width="306.341" height="21.3329" fill="white"/>
<circle cx="35.0807" cy="25.4968" r="3.41327" fill="#2FDF84"/>
<circle cx="47.0275" cy="25.4968" r="3.41327" fill="#D2D6DC"/>
<circle cx="58.9738" cy="25.4968" r="3.41327" fill="#D2D6DC"/>
<rect x="21.0009" y="36.1635" width="305.488" height="131.411" fill="#F4FBF7" stroke="#D2D6DC" stroke-width="0.853318"/>
<ellipse cx="55.5319" cy="54.5097" rx="8.50501" ry="8.53318" fill="#D2D6DC"/>
<rect x="243.493" y="52.8032" width="25.515" height="3.41327" rx="1.70664" fill="#D2D6DC"/>
<rect x="279.214" y="52.8032" width="25.515" height="3.41327" rx="1.70664" fill="#D2D6DC"/>
<rect x="207.772" y="52.8032" width="25.515" height="3.41327" rx="1.70664" fill="#D2D6DC"/>
<g filter="url(#filter1_d_146_9821)">
<rect x="47.0269" y="87.7891" width="94.7183" height="92.1583" rx="6.82654" fill="#F4FBF7"/>
<rect x="47.4535" y="88.2157" width="93.8649" height="91.305" rx="6.39988" stroke="#D2D6DC" stroke-width="0.853318"/>
</g>
<rect x="47.4535" y="193.174" width="93.8649" height="91.305" rx="6.39988" fill="white" stroke="#F7F7F8" stroke-width="0.853318"/>
<rect x="153.265" y="193.174" width="93.8649" height="91.305" rx="6.39988" fill="white" stroke="#F7F7F8" stroke-width="0.853318"/>
<rect x="171.611" y="87.7891" width="33.2794" height="3.41327" rx="1.70664" fill="#D2D6DC"/>
<path d="M179.626 110.159C179.626 109.381 179.38 108.753 178.875 108.275C178.397 107.797 177.619 107.387 176.554 107.06V103.933C177.264 104.083 177.783 104.561 178.097 105.353L179.476 104.602C179.039 103.455 178.042 102.568 176.567 102.39L176.581 100.984H175.489L175.475 102.39C174.615 102.5 173.891 102.841 173.332 103.414C172.772 103.974 172.485 104.643 172.485 105.408C172.485 106.227 172.758 106.869 173.304 107.333C173.782 107.77 174.506 108.152 175.502 108.466V111.647C174.574 111.47 173.919 110.91 173.55 109.94L172.144 110.678C172.676 112.139 173.878 113.026 175.475 113.19L175.489 114.542H176.581L176.567 113.19C177.509 113.081 178.26 112.739 178.807 112.152C179.353 111.565 179.626 110.91 179.626 110.159ZM174.192 105.312C174.192 104.602 174.724 104.056 175.502 103.906V106.718C174.629 106.377 174.192 105.967 174.192 105.312ZM176.54 108.821C177.509 109.203 177.905 109.613 177.905 110.254C177.905 110.978 177.359 111.511 176.54 111.661V108.821ZM188.36 110.145C188.36 108.944 187.746 108.111 186.517 107.633V107.619C187.596 107.101 188.128 106.281 188.128 105.176C188.128 104.37 187.801 103.701 187.159 103.141C186.517 102.581 185.643 102.308 184.551 102.308C182.735 102.308 181.466 103.291 180.974 104.711L182.435 105.38C182.872 104.356 183.568 103.838 184.524 103.838C185.725 103.838 186.422 104.479 186.422 105.353C186.422 105.79 186.244 106.172 185.876 106.486C185.521 106.8 185.07 106.95 184.524 106.95H183.473V108.466H184.62C185.207 108.466 185.684 108.63 186.053 108.957C186.435 109.271 186.627 109.667 186.627 110.118C186.627 110.555 186.435 110.937 186.039 111.265C185.643 111.579 185.166 111.743 184.592 111.743C183.514 111.743 182.735 111.21 182.271 110.159L180.824 110.869C181.466 112.466 182.708 113.272 184.565 113.272C185.671 113.272 186.572 112.971 187.282 112.371C188.005 111.756 188.36 111.019 188.36 110.145ZM192.995 111.811C192.272 111.811 191.534 111.497 190.797 110.883L189.923 112.098C190.838 112.89 191.862 113.285 192.995 113.285C196.34 113.285 197.746 110.446 197.746 107.415C197.746 105.585 197.35 104.274 196.545 103.469C195.767 102.691 194.797 102.308 193.637 102.308C192.558 102.308 191.643 102.65 190.879 103.346C190.128 104.029 189.746 104.902 189.746 105.981C189.746 107.005 190.087 107.852 190.756 108.493C191.425 109.135 192.285 109.463 193.323 109.463C194.374 109.463 195.466 108.957 196.081 108.097H196.108C196.012 109.394 195.617 110.487 194.674 111.251C194.21 111.62 193.65 111.811 192.995 111.811ZM193.664 108.002C192.367 108.002 191.48 107.169 191.48 105.899C191.48 104.643 192.394 103.838 193.664 103.838C194.975 103.838 195.903 104.629 195.903 105.94C195.903 106.541 195.685 107.032 195.234 107.428C194.784 107.811 194.265 108.002 193.664 108.002ZM198.87 112.029C198.87 112.671 199.402 113.217 200.058 113.217C200.713 113.217 201.245 112.685 201.245 112.029C201.245 111.36 200.727 110.828 200.058 110.828C199.402 110.828 198.87 111.36 198.87 112.029ZM205.928 111.811C205.205 111.811 204.467 111.497 203.73 110.883L202.856 112.098C203.771 112.89 204.795 113.285 205.928 113.285C209.273 113.285 210.68 110.446 210.68 107.415C210.68 105.585 210.284 104.274 209.478 103.469C208.7 102.691 207.73 102.308 206.57 102.308C205.491 102.308 204.577 102.65 203.812 103.346C203.061 104.029 202.679 104.902 202.679 105.981C202.679 107.005 203.02 107.852 203.689 108.493C204.358 109.135 205.218 109.463 206.256 109.463C207.307 109.463 208.399 108.957 209.014 108.097H209.041C208.946 109.394 208.55 110.487 207.608 111.251C207.143 111.62 206.584 111.811 205.928 111.811ZM206.597 108.002C205.3 108.002 204.413 107.169 204.413 105.899C204.413 104.643 205.328 103.838 206.597 103.838C207.908 103.838 208.836 104.629 208.836 105.94C208.836 106.541 208.618 107.032 208.167 107.428C207.717 107.811 207.198 108.002 206.597 108.002ZM215.288 111.811C214.564 111.811 213.827 111.497 213.09 110.883L212.216 112.098C213.131 112.89 214.155 113.285 215.288 113.285C218.633 113.285 220.039 110.446 220.039 107.415C220.039 105.585 219.643 104.274 218.838 103.469C218.06 102.691 217.09 102.308 215.93 102.308C214.851 102.308 213.936 102.65 213.172 103.346C212.421 104.029 212.039 104.902 212.039 105.981C212.039 107.005 212.38 107.852 213.049 108.493C213.718 109.135 214.578 109.463 215.616 109.463C216.667 109.463 217.759 108.957 218.374 108.097H218.401C218.305 109.394 217.909 110.487 216.967 111.251C216.503 111.62 215.943 111.811 215.288 111.811ZM215.957 108.002C214.66 108.002 213.773 107.169 213.773 105.899C213.773 104.643 214.687 103.838 215.957 103.838C217.268 103.838 218.196 104.629 218.196 105.94C218.196 106.541 217.978 107.032 217.527 107.428C217.077 107.811 216.558 108.002 215.957 108.002Z" fill="#9BA4B0"/>
<rect x="171.611" y="128.748" width="89.5984" height="3.41327" rx="1.70664" fill="#D2D6DC"/>
<rect x="171.611" y="140.694" width="40.1059" height="3.41327" rx="1.70664" fill="#D2D6DC"/>
<rect x="271.45" y="128.748" width="33.2794" height="3.41327" rx="1.70664" fill="#D2D6DC"/>
<rect x="221.957" y="140.694" width="82.7718" height="3.41327" rx="1.70664" fill="#D2D6DC"/>
<rect x="171.611" y="156.908" width="57.1723" height="22.1863" rx="3.41327" fill="#00B871"/>
<rect x="187.825" y="166.294" width="25.5995" height="3.41327" rx="1.70664" fill="white"/>
</g>
<rect x="21.0742" y="14.9038" width="305.341" height="240.165" rx="7.5" stroke="#D2D6DC"/>
</g>
<defs>
<filter id="filter0_d_146_9821" x="0.574219" y="0.403809" width="346.341" height="281.165" filterUnits="userSpaceOnUse" color-interpolation-filters="sRGB">
<feFlood flood-opacity="0" result="BackgroundImageFix"/>
<feColorMatrix in="SourceAlpha" type="matrix" values="0 0 0 0 0 0 0 0 0 0 0 0 0 0 0 0 0 0 127 0" result="hardAlpha"/>
<feMorphology radius="4" operator="dilate" in="SourceAlpha" result="effect1_dropShadow_146_9821"/>
<feOffset dy="6"/>
<feGaussianBlur stdDeviation="8"/>
<feComposite in2="hardAlpha" operator="out"/>
<feColorMatrix type="matrix" values="0 0 0 0 0.184314 0 0 0 0 0.87451 0 0 0 0 0.517647 0 0 0 0.15 0"/>
<feBlend mode="normal" in2="BackgroundImageFix" result="effect1_dropShadow_146_9821"/>
<feBlend mode="normal" in="SourceGraphic" in2="effect1_dropShadow_146_9821" result="shape"/>
</filter>
<filter id="filter1_d_146_9821" x="42.0269" y="82.7891" width="106.718" height="104.158" filterUnits="userSpaceOnUse" color-interpolation-filters="sRGB">
<feFlood flood-opacity="0" result="BackgroundImageFix"/>
<feColorMatrix in="SourceAlpha" type="matrix" values="0 0 0 0 0 0 0 0 0 0 0 0 0 0 0 0 0 0 127 0" result="hardAlpha"/>
<feOffset dx="1" dy="1"/>
<feGaussianBlur stdDeviation="3"/>
<feComposite in2="hardAlpha" operator="out"/>
<feColorMatrix type="matrix" values="0 0 0 0 0 0 0 0 0 0.721569 0 0 0 0 0.443137 0 0 0 0.15 0"/>
<feBlend mode="normal" in2="BackgroundImageFix" result="effect1_dropShadow_146_9821"/>
<feBlend mode="normal" in="SourceGraphic" in2="effect1_dropShadow_146_9821" result="shape"/>
</filter>
<clipPath id="clip0_146_9821">
<rect x="20.5742" y="14.4038" width="306.341" height="241.165" rx="8" fill="white"/>
</clipPath>
</defs>
</svg>
