<svg width="35" height="29" viewBox="0 0 35 29" fill="none" xmlns="http://www.w3.org/2000/svg">
<path d="M34.2497 3.90845C32.9656 4.46553 31.6076 4.83379 30.218 5.00178C31.6841 4.12595 32.7827 2.74812 33.3101 1.12386C31.9324 1.94397 30.4243 2.52179 28.8513 2.8322C27.7999 1.69201 26.3998 0.933037 24.8706 0.674319C23.3414 0.4156 21.7695 0.671768 20.4016 1.40265C19.0336 2.13352 17.9469 3.29777 17.312 4.71279C16.677 6.12781 16.5296 7.71357 16.893 9.22136C14.1074 9.08047 11.3827 8.35516 8.89571 7.09254C6.40874 5.82993 4.2152 4.05826 2.45759 1.89261C1.84112 2.96915 1.51719 4.18831 1.51801 5.42886C1.51582 6.58093 1.79855 7.71567 2.34101 8.73204C2.88347 9.74841 3.66883 10.6149 4.62717 11.2543C3.5133 11.224 2.42323 10.9251 1.44967 10.383V10.4684C1.45802 12.0826 2.02366 13.6444 3.05092 14.8896C4.07818 16.1347 5.50399 16.9868 7.08717 17.3018C6.47774 17.4872 5.845 17.585 5.20801 17.5922C4.76707 17.587 4.32723 17.5471 3.89259 17.4726C4.34344 18.8612 5.21591 20.0747 6.38859 20.9442C7.56128 21.8138 8.97587 22.2962 10.4355 22.3243C7.97073 24.2637 4.92764 25.3222 1.79134 25.3309C1.22031 25.3328 0.649723 25.2986 0.0830078 25.2284C3.28516 27.296 7.01681 28.3935 10.8284 28.3889C13.4587 28.4162 16.0681 27.9191 18.5042 26.9267C20.9402 25.9342 23.1541 24.4663 25.0165 22.6087C26.8789 20.7511 28.3524 18.541 29.3511 16.1075C30.3498 13.674 30.8536 11.0659 30.833 8.43553C30.833 8.14511 30.833 7.83761 30.833 7.53011C32.1735 6.53042 33.3297 5.30488 34.2497 3.90845Z" fill="#00B871"/>
</svg>
