<svg width="117" height="30" viewBox="0 0 117 30" fill="none" xmlns="http://www.w3.org/2000/svg">
<path fill-rule="evenodd" clip-rule="evenodd" d="M105.843 18.2057C105.843 15.9019 104.873 13.2356 101.856 9.51859L94.5785 0.568848H84.4471L90.215 6.84782C91.1868 7.8949 92.4245 8.83586 92.4245 8.83586C91.0219 8.05143 89.246 7.73749 87.8434 7.73749C84.5027 7.73749 81.1073 8.41844 78.089 10.0404C74.8558 11.7666 72.6973 14.6452 72.6973 18.4666C72.6973 21.3965 74.047 23.6472 75.7711 25.3734C79.651 29.1435 86.7122 29.5087 89.2997 29.5087C93.1267 29.5087 99.1105 28.6703 102.504 25.6883C104.5 23.9089 105.847 21.4495 105.847 18.2066L105.843 18.2057ZM117 8.31409H108.215V28.8286H117V8.31409ZM44.7786 28.8286L25.3746 0.568848H14.4882L17.4965 4.02228L0.421387 28.8286H10.2304L13.1567 24.1716H31.658L34.6454 28.8269H44.7786V28.8286ZM70.4868 20.2459V8.31409H61.973V17.4725C61.973 20.0903 61.8637 20.8207 61.7025 21.5008C61.1105 23.3845 59.0612 24.2211 56.9574 24.2211C54.0475 24.2211 52.6995 23.1218 52.1622 21.3947C51.9982 20.8199 51.9463 20.1937 51.8926 19.5641C51.8379 18.8849 51.8926 18.1517 51.8926 17.3664V8.31409H43.2694V20.2972C43.2694 22.968 44.1847 24.9551 45.6939 26.317C48.2805 28.7756 52.6467 29.5096 56.6896 29.5096C61.595 29.5096 65.3692 28.8286 68.0633 26.264C69.4659 24.9551 70.4896 23.2289 70.4896 20.2459H70.4868ZM97.4365 18.4666C97.4365 20.6111 95.9811 22.2339 94.1486 23.1236C92.6404 23.9089 90.8607 24.1176 89.297 24.1176C87.7341 24.1176 85.9016 23.8055 84.3925 23.0714C82.56 22.1827 81.1592 20.4555 81.1592 18.57C81.1592 16.3211 82.9371 14.5418 85.0391 13.6512C86.3324 13.0746 87.8962 12.8659 89.1348 12.8659C90.3207 12.8659 92.0466 13.0224 93.3927 13.5469C95.819 14.5418 97.4365 16.4246 97.4365 18.4666ZM28.2381 18.6567H16.5119L22.3554 9.29485L28.239 18.6567H28.2381Z" fill="#D2D6DC"/>
</svg>
